<?xml version="1.0" encoding="UTF-8" standalone="no"?>
<svg
   xmlns:dc="http://purl.org/dc/elements/1.1/"
   xmlns:cc="http://creativecommons.org/ns#"
   xmlns:rdf="http://www.w3.org/1999/02/22-rdf-syntax-ns#"
   xmlns:svg="http://www.w3.org/2000/svg"
   xmlns="http://www.w3.org/2000/svg"
   xmlns:sodipodi="http://sodipodi.sourceforge.net/DTD/sodipodi-0.dtd"
   xmlns:inkscape="http://www.inkscape.org/namespaces/inkscape"
   version="1.1"
   width="600mm"
   height="600mm"
   viewBox="0 -400 600 600"
   id="svg22"
   sodipodi:docname="humo_120x120mm_3mm_mk2.svg"
   inkscape:version="0.92.2 (5c3e80d, 2017-08-06)">
  <metadata
     id="metadata28">
    <rdf:RDF>
      <cc:Work
         rdf:about="">
        <dc:format>image/svg+xml</dc:format>
        <dc:type
           rdf:resource="http://purl.org/dc/dcmitype/StillImage" />
        <dc:title></dc:title>
      </cc:Work>
    </rdf:RDF>
  </metadata>
  <defs
     id="defs26" />
  <sodipodi:namedview
     pagecolor="#ffffff"
     bordercolor="#666666"
     borderopacity="1"
     objecttolerance="10"
     gridtolerance="10"
     guidetolerance="10"
     inkscape:pageopacity="0"
     inkscape:pageshadow="2"
     inkscape:window-width="1920"
     inkscape:window-height="1017"
     id="namedview24"
     showgrid="false"
     inkscape:measure-start="1622,1682"
     inkscape:measure-end="1486,1884"
     inkscape:zoom="0.70710678"
     inkscape:cx="482.9885"
     inkscape:cy="1783.2171"
     inkscape:window-x="-8"
     inkscape:window-y="-8"
     inkscape:window-maximized="1"
     inkscape:current-layer="svg22" />
  <path
     transform="translate(-46.831249,-10.583333)"
     style="fill:none;stroke:#000000;stroke-width:0.30000001;stroke-miterlimit:4;stroke-dasharray:none;stroke-opacity:1"
     d="m 52,-196 h 3 10.1667 v -3 H 85.5 v 3 h 10.1667 10.1666 v -3 h 20.3334 v 3 H 136.3333 146.5 v -3 h 20.3333 v 3 H 177 v -3 -10 h 3 v -20 h -3 v -10 -3 h -10.1667 v 3 H 146.5 v -3 h -10.1667 -10.1666 v 3 h -20.3334 v -3 H 95.6667 85.5 v 3 H 65.1667 v -3 H 55 52 v 3 10 h 3 v 20 h -3 v 10 3"
     id="polyline14" />
  <!-- Created by freebie -->
  <g
     id="g4709"
     transform="translate(83.814583,-202.525)">
    <path
       style="fill:none;stroke:#000000;stroke-width:0.30000001;stroke-miterlimit:4;stroke-dasharray:none;stroke-opacity:1"
       d="m 55,-55 h 10.1667 v 3 H 85.5 v -3 h 10.1667 10.1666 v 3 h 20.3334 v -3 H 136.3333 146.5 v 3 h 20.3333 v -3 H 177 v -11.25 h 3 v -22.5 h -3 V -100 -111.25 h 3 v -22.5 h -3 V -145 -156.25 h 3 v -22.5 h -3 V -190 h -10.1667 v -3 H 146.5 v 3 h -10.1667 -10.1666 v -3 h -20.3334 v 3 H 95.6667 85.5 v -3 H 65.1667 v 3 H 55 v 11.25 h -3 v 22.5 h 3 v 11.25 11.25 h -3 v 22.5 h 3 v 11.25 11.25 h -3 v 22.5 h 3 V -55"
       id="polyline8" />
    <g
       id="g903"
       transform="translate(3)">
      <g
         id="g910"
         style="fill:none;fill-opacity:1;stroke:#000000;stroke-width:0.30000001;stroke-miterlimit:4;stroke-dasharray:none;stroke-opacity:1">
        <path
           inkscape:connector-curvature="0"
           d="m 63,-163 h 100 v 50 q 0,50 -50,50 v 0 q -50,0 -50,-50 z"
           style="fill:none;fill-opacity:1;fill-rule:nonzero;stroke:#000000;stroke-width:0.30000001;stroke-miterlimit:4;stroke-dasharray:none;stroke-opacity:1"
           id="path838" />
        <path
           style="fill:none;fill-opacity:1;fill-rule:nonzero;stroke:#000000;stroke-width:0.30000001;stroke-miterlimit:4;stroke-dasharray:none;stroke-opacity:1"
           d="m 101.97633,-75.500008 a 0.2561304,0.2561304 0 0 1 -0.25613,0.256131 0.2561304,0.2561304 0 0 1 -0.25613,-0.256131 0.2561304,0.2561304 0 0 1 0.25613,-0.25613 0.2561304,0.2561304 0 0 1 0.25613,0.25613 z"
           id="path980" />
        <path
           style="fill:none;fill-opacity:1;fill-rule:nonzero;stroke:#000000;stroke-width:0.30000001;stroke-miterlimit:4;stroke-dasharray:none;stroke-opacity:1"
           d="m 101.7202,-160.45784 c 5.51665,0 9.95784,4.46 9.95784,10 v 74.91568 c 0,5.54 -4.44119,10 -9.95784,10 -5.516643,0 -9.95784,-4.46 -9.95784,-10 v -74.91568 c 0,-5.54 4.441197,-10 9.95784,-10 z"
           id="rect984" />
        <path
           style="fill:none;fill-opacity:1;fill-rule:nonzero;stroke:#000000;stroke-width:0.30000001;stroke-miterlimit:4;stroke-dasharray:none;stroke-opacity:1"
           d="m 124.53593,-75.500008 a 0.2561304,0.2561304 0 0 1 -0.25613,0.256131 0.2561304,0.2561304 0 0 1 -0.25613,-0.256131 0.2561304,0.2561304 0 0 1 0.25613,-0.25613 0.2561304,0.2561304 0 0 1 0.25613,0.25613 z"
           id="path980-6" />
        <path
           style="fill:none;fill-opacity:1;fill-rule:nonzero;stroke:#000000;stroke-width:0.30000001;stroke-miterlimit:4;stroke-dasharray:none;stroke-opacity:1"
           d="m 124.2798,-160.45784 c 5.51665,0 9.95784,4.46 9.95784,10 v 74.91568 c 0,5.54 -4.44119,10 -9.95784,10 -5.51664,0 -9.95784,-4.46 -9.95784,-10 v -74.91568 c 0,-5.54 4.4412,-10 9.95784,-10 z"
           id="rect984-7" />
      </g>
    </g>
  </g>
  <path
     transform="rotate(-90,91.254316,-247.87297)"
     style="fill:none;stroke:#000000;stroke-width:0.30000001;stroke-miterlimit:4;stroke-dasharray:none;stroke-opacity:1"
     d="m 3,-52 h 3 10 v -3 h 20 v 3 h 10 3 v -3 -11.25 h -3 v -22.5 h 3 V -100 -111.25 h -3 v -22.5 h 3 V -145 -156.25 h -3 v -22.5 h 3 V -190 H 46 36 v -3 H 16 v 3 H 6 3 v 11.25 h 3 v 22.5 H 3 v 11.25 11.25 h 3 v 22.5 H 3 v 11.25 11.25 h 3 v 22.5 H 3 v 11.25 3"
     id="polyline10" />
  <path
     style="fill:none;fill-opacity:1;fill-rule:nonzero;stroke:#000000;stroke-width:0.30000001;stroke-miterlimit:4;stroke-dasharray:none;stroke-opacity:1"
     d="m 276.87115,-182.87478 a 0.2561304,0.2561304 0 0 1 0.25614,0.25613 0.2561304,0.2561304 0 0 1 -0.25614,0.25613 0.2561304,0.2561304 0 0 1 -0.25613,-0.25613 0.2561304,0.2561304 0 0 1 0.25613,-0.25613 z"
     id="path980-6-3-5"
     inkscape:connector-curvature="0" />
  <path
     transform="rotate(-90,110.28022,-86.871371)"
     style="fill:none;stroke:#000000;stroke-width:0.30000001;stroke-miterlimit:4;stroke-dasharray:none;stroke-opacity:1"
     d="m 186,-55 h 10 v 3 h 20 v -3 h 10 3 v -11.25 h -3 v -22.5 h 3 V -100 -111.25 h -3 v -22.5 h 3 V -145 -156.25 h -3 v -22.5 h 3 v -11.25 -3 h -3 -10 v 3 h -20 v -3 h -10 -3 v 3 11.25 h 3 v 22.5 h -3 v 11.25 11.25 h 3 v 22.5 h -3 v 11.25 11.25 h 3 v 22.5 h -3 V -55 h 3"
     id="polyline12" />
  <path
     style="fill:none;fill-opacity:1;fill-rule:nonzero;stroke:#000000;stroke-width:0.30000001;stroke-miterlimit:4;stroke-dasharray:none;stroke-opacity:1"
     d="m 134.89546,-182.84729 a 0.2561304,0.2561304 0 0 1 0.25613,0.25613 0.2561304,0.2561304 0 0 1 -0.25613,0.25613 0.2561304,0.2561304 0 0 1 -0.25613,-0.25613 0.2561304,0.2561304 0 0 1 0.25613,-0.25613 z"
     id="path980-6-3-5-0"
     inkscape:connector-curvature="0" />
  <path
     inkscape:connector-curvature="0"
     id="polyline16"
     d="m 138.81458,-207.20208 h 10.1667 v -3 h 20.3333 v 3 h 10.1667 10.1666 v -3 h 20.3334 v 3 h 10.1666 10.1667 v -3 h 20.3333 v 3 h 10.1667 3 v -3 -10 h -3 v -20 h 3 v -10 -3 h -3 -10.1667 v 3 h -20.3333 v -3 h -10.1667 -10.1666 v 3 h -20.3334 v -3 h -10.1666 -10.1667 v 3 h -20.3333 v -3 h -10.1667 v 3 10 h -3 v 20 h 3 v 10 3"
     style="fill:none;stroke:#000000;stroke-width:0.30000001;stroke-miterlimit:4;stroke-dasharray:none;stroke-opacity:1" />
  <g
     id="g988"
     style="stroke:#0000ff">
    <g
       style="fill:none;fill-opacity:1;stroke:#0000ff;stroke-width:0.30000001;stroke-miterlimit:4;stroke-dasharray:none;stroke-opacity:1"
       id="g2213"
       transform="translate(86.785566,-206.2647)">
      <g
         style="fill:none;fill-opacity:1;stroke:#0000ff;stroke-width:0.95927316;stroke-miterlimit:4;stroke-dasharray:none;stroke-opacity:1"
         id="g1656"
         transform="matrix(0.31273678,0,0,0.31273678,57.46532,-35.914929)"
         inkscape:label="Hershey Text">
        <path
           id="path1648"
           transform="translate(11)"
           style="fill:none;fill-opacity:1;stroke:#0000ff;stroke-width:0.95927316;stroke-miterlimit:4;stroke-dasharray:none;stroke-opacity:1"
           d="M -7,-12 V 9 M 7,-12 V 9 M -7,-2 H 7"
           inkscape:connector-curvature="0" />
        <path
           id="path1650"
           transform="translate(31)"
           style="fill:none;fill-opacity:1;stroke:#0000ff;stroke-width:0.95927316;stroke-miterlimit:4;stroke-dasharray:none;stroke-opacity:1"
           d="M -5,-5 V 5 l 1,3 2,1 H 1 L 3,8 6,5 M 6,-5 V 9"
           inkscape:connector-curvature="0" />
        <path
           id="path1652"
           transform="translate(56)"
           style="fill:none;fill-opacity:1;stroke:#0000ff;stroke-width:0.95927316;stroke-miterlimit:4;stroke-dasharray:none;stroke-opacity:1"
           d="M -11,-5 V 9 m 0,-10 3,-3 2,-1 h 3 l 2,1 1,3 V 9 M 0,-1 3,-4 5,-5 h 3 l 2,1 1,3 V 9"
           inkscape:connector-curvature="0" />
        <path
           id="path1654"
           transform="translate(80)"
           style="fill:none;fill-opacity:1;stroke:#0000ff;stroke-width:0.95927316;stroke-miterlimit:4;stroke-dasharray:none;stroke-opacity:1"
           d="m -1,-5 -2,1 -2,2 -1,3 v 2 l 1,3 2,2 2,1 H 2 L 4,8 6,6 7,3 V 1 L 6,-2 4,-4 2,-5 h -3"
           inkscape:connector-curvature="0" />
      </g>
      <g
         style="fill:none;fill-opacity:1;stroke:#0000ff;stroke-width:1.48522413;stroke-miterlimit:4;stroke-dasharray:none;stroke-opacity:1"
         inkscape:label="Hershey Text"
         transform="matrix(0.20198972,0,0,0.20198972,72.150716,-28.351344)"
         id="g1718">
        <path
           d="M -6,-5 0,9 M 6,-5 0,9"
           style="fill:none;fill-opacity:1;stroke:#0000ff;stroke-width:1.48522413;stroke-miterlimit:4;stroke-dasharray:none;stroke-opacity:1"
           transform="translate(8)"
           id="path1710"
           inkscape:connector-curvature="0" />
        <path
           d="m -4,-8 2,-1 3,-3 V 9"
           style="fill:none;fill-opacity:1;stroke:#0000ff;stroke-width:1.48522413;stroke-miterlimit:4;stroke-dasharray:none;stroke-opacity:1"
           transform="translate(26)"
           id="path1712"
           inkscape:connector-curvature="0" />
        <path
           d="M 0,4 -1,5 0,6 1,5 0,4"
           style="fill:none;fill-opacity:1;stroke:#0000ff;stroke-width:1.48522413;stroke-miterlimit:4;stroke-dasharray:none;stroke-opacity:1"
           transform="translate(40)"
           id="path1714"
           inkscape:connector-curvature="0" />
        <path
           d="m -1,-12 -3,1 -2,3 -1,5 v 3 l 1,5 2,3 3,1 H 1 L 4,8 6,5 7,0 V -3 L 6,-8 4,-11 1,-12 h -2"
           style="fill:none;fill-opacity:1;stroke:#0000ff;stroke-width:1.48522413;stroke-miterlimit:4;stroke-dasharray:none;stroke-opacity:1"
           transform="translate(54)"
           id="path1716"
           inkscape:connector-curvature="0" />
      </g>
    </g>
    <g
       style="fill:none;fill-opacity:1;stroke:#0000ff;stroke-width:0.30000001;stroke-miterlimit:4;stroke-dasharray:none;stroke-opacity:1"
       id="g2201"
       transform="translate(86.780507,-204.64332)">
      <g
         style="fill:none;fill-opacity:1;stroke:#0000ff;stroke-width:2.27061701;stroke-miterlimit:4;stroke-dasharray:none;stroke-opacity:1"
         inkscape:label="Hershey Text"
         transform="matrix(0.13212268,0,0,0.13212268,139.15597,-14.47796)"
         id="g1940">
        <path
           d="M 8,-7 7,-9 5,-11 3,-12 h -4 l -2,1 -2,2 -1,2 -1,3 v 5 l 1,3 1,2 2,2 2,1 H 3 L 5,8 7,6 8,4"
           style="fill:none;fill-opacity:1;stroke:#0000ff;stroke-width:2.27061701;stroke-miterlimit:4;stroke-dasharray:none;stroke-opacity:1"
           transform="translate(10)"
           id="path1916"
           inkscape:connector-curvature="0" />
        <path
           d="M 8,-7 7,-9 5,-11 3,-12 h -4 l -2,1 -2,2 -1,2 -1,3 v 5 l 1,3 1,2 2,2 2,1 H 3 L 5,8 7,6 8,4"
           style="fill:none;fill-opacity:1;stroke:#0000ff;stroke-width:2.27061701;stroke-miterlimit:4;stroke-dasharray:none;stroke-opacity:1"
           transform="translate(31)"
           id="path1918"
           inkscape:connector-curvature="0" />
        <path
           d="M -9,0 H 9"
           style="fill:none;fill-opacity:1;stroke:#0000ff;stroke-width:2.27061701;stroke-miterlimit:4;stroke-dasharray:none;stroke-opacity:1"
           transform="translate(55)"
           id="path1920"
           inkscape:connector-curvature="0" />
        <path
           d="M -7,-12 V 9 m 0,-21 h 9 l 3,1 1,1 1,2 v 2 l -1,2 -1,1 -3,1 m -9,0 h 9 l 3,1 1,1 1,2 V 5 L 6,7 5,8 2,9 h -9"
           style="fill:none;fill-opacity:1;stroke:#0000ff;stroke-width:2.27061701;stroke-miterlimit:4;stroke-dasharray:none;stroke-opacity:1"
           transform="translate(79)"
           id="path1922"
           inkscape:connector-curvature="0" />
        <path
           d="M -8,-12 0,-2 V 9 M 8,-12 0,-2"
           style="fill:none;fill-opacity:1;stroke:#0000ff;stroke-width:2.27061701;stroke-miterlimit:4;stroke-dasharray:none;stroke-opacity:1"
           transform="translate(98)"
           id="path1924"
           inkscape:connector-curvature="0" />
        <path
           d="M -9,0 H 9"
           style="fill:none;fill-opacity:1;stroke:#0000ff;stroke-width:2.27061701;stroke-miterlimit:4;stroke-dasharray:none;stroke-opacity:1"
           transform="translate(120)"
           id="path1926"
           inkscape:connector-curvature="0" />
        <path
           d="m 7,-9 -2,-2 -3,-1 h -4 l -3,1 -2,2 v 2 l 1,2 1,1 2,1 6,2 2,1 1,1 1,2 V 6 L 5,8 2,9 H -2 L -5,8 -7,6"
           style="fill:none;fill-opacity:1;stroke:#0000ff;stroke-width:2.27061701;stroke-miterlimit:4;stroke-dasharray:none;stroke-opacity:1"
           transform="translate(143)"
           id="path1928"
           inkscape:connector-curvature="0" />
        <path
           d="M 0,-12 -8,9 M 0,-12 8,9 M -5,2 H 5"
           style="fill:none;fill-opacity:1;stroke:#0000ff;stroke-width:2.27061701;stroke-miterlimit:4;stroke-dasharray:none;stroke-opacity:1"
           transform="translate(162)"
           id="path1930"
           inkscape:connector-curvature="0" />
        <path
           d=""
           style="fill:none;fill-opacity:1;stroke:#0000ff;stroke-width:2.27061701;stroke-miterlimit:4;stroke-dasharray:none;stroke-opacity:1"
           transform="translate(179)"
           id="path1932"
           inkscape:connector-curvature="0" />
        <path
           d="M 3,-12 -7,2 H 8 M 3,-12 V 9"
           style="fill:none;fill-opacity:1;stroke:#0000ff;stroke-width:2.27061701;stroke-miterlimit:4;stroke-dasharray:none;stroke-opacity:1"
           transform="translate(197)"
           id="path1934"
           inkscape:connector-curvature="0" />
        <path
           d="M 0,4 -1,5 0,6 1,5 0,4"
           style="fill:none;fill-opacity:1;stroke:#0000ff;stroke-width:2.27061701;stroke-miterlimit:4;stroke-dasharray:none;stroke-opacity:1"
           transform="translate(211)"
           id="path1936"
           inkscape:connector-curvature="0" />
        <path
           d="m -1,-12 -3,1 -2,3 -1,5 v 3 l 1,5 2,3 3,1 H 1 L 4,8 6,5 7,0 V -3 L 6,-8 4,-11 1,-12 h -2"
           style="fill:none;fill-opacity:1;stroke:#0000ff;stroke-width:2.27061701;stroke-miterlimit:4;stroke-dasharray:none;stroke-opacity:1"
           transform="translate(225)"
           id="path1938"
           inkscape:connector-curvature="0" />
      </g>
      <g
         style="fill:none;fill-opacity:1;stroke:#0000ff;stroke-width:2.25954366;stroke-miterlimit:4;stroke-dasharray:none;stroke-opacity:1"
         id="g2094"
         transform="matrix(0.13277017,0,0,0.13277017,139.25369,-10.535549)"
         inkscape:label="Hershey Text">
        <path
           id="path2066"
           transform="translate(8)"
           style="fill:none;fill-opacity:1;stroke:#0000ff;stroke-width:2.25954366;stroke-miterlimit:4;stroke-dasharray:none;stroke-opacity:1"
           d="M 0,-12 V 9 M -7,-12 H 7"
           inkscape:connector-curvature="0" />
        <path
           id="path2068"
           transform="translate(20)"
           style="fill:none;fill-opacity:1;stroke:#0000ff;stroke-width:2.25954366;stroke-miterlimit:4;stroke-dasharray:none;stroke-opacity:1"
           d="m -1,-12 1,1 1,-1 -1,-1 -1,1 m 1,7 V 9"
           inkscape:connector-curvature="0" />
        <path
           id="path2070"
           transform="translate(39)"
           style="fill:none;fill-opacity:1;stroke:#0000ff;stroke-width:2.25954366;stroke-miterlimit:4;stroke-dasharray:none;stroke-opacity:1"
           d="M -11,-5 V 9 m 0,-10 3,-3 2,-1 h 3 l 2,1 1,3 V 9 M 0,-1 3,-4 5,-5 h 3 l 2,1 1,3 V 9"
           inkscape:connector-curvature="0" />
        <path
           id="path2072"
           transform="translate(63)"
           style="fill:none;fill-opacity:1;stroke:#0000ff;stroke-width:2.25954366;stroke-miterlimit:4;stroke-dasharray:none;stroke-opacity:1"
           d="m -1,-5 -2,1 -2,2 -1,3 v 2 l 1,3 2,2 2,1 H 2 L 4,8 6,6 7,3 V 1 L 6,-2 4,-4 2,-5 h -3"
           inkscape:connector-curvature="0" />
        <path
           id="path2074"
           transform="translate(81)"
           style="fill:none;fill-opacity:1;stroke:#0000ff;stroke-width:2.25954366;stroke-miterlimit:4;stroke-dasharray:none;stroke-opacity:1"
           d=""
           inkscape:connector-curvature="0" />
        <path
           id="path2076"
           transform="translate(99)"
           style="fill:none;fill-opacity:1;stroke:#0000ff;stroke-width:2.25954366;stroke-miterlimit:4;stroke-dasharray:none;stroke-opacity:1"
           d="m 7,-9 -2,-2 -3,-1 h -4 l -3,1 -2,2 v 2 l 1,2 1,1 2,1 6,2 2,1 1,1 1,2 V 6 L 5,8 2,9 H -2 L -5,8 -7,6"
           inkscape:connector-curvature="0" />
        <path
           id="path2078"
           transform="translate(118)"
           style="fill:none;fill-opacity:1;stroke:#0000ff;stroke-width:2.25954366;stroke-miterlimit:4;stroke-dasharray:none;stroke-opacity:1"
           d="M 6,-2 4,-4 2,-5 h -3 l -2,1 -2,2 -1,3 v 2 l 1,3 2,2 2,1 H 2 L 4,8 6,6"
           inkscape:connector-curvature="0" />
        <path
           id="path2080"
           transform="translate(136)"
           style="fill:none;fill-opacity:1;stroke:#0000ff;stroke-width:2.25954366;stroke-miterlimit:4;stroke-dasharray:none;stroke-opacity:1"
           d="M -5,-12 V 9 m 0,-10 3,-3 2,-1 h 3 l 2,1 1,3 V 9"
           inkscape:connector-curvature="0" />
        <path
           id="path2082"
           transform="translate(150)"
           style="fill:none;fill-opacity:1;stroke:#0000ff;stroke-width:2.25954366;stroke-miterlimit:4;stroke-dasharray:none;stroke-opacity:1"
           d="m -1,-12 1,1 1,-1 -1,-1 -1,1 m 1,7 V 9"
           inkscape:connector-curvature="0" />
        <path
           id="path2084"
           transform="translate(163)"
           style="fill:none;fill-opacity:1;stroke:#0000ff;stroke-width:2.25954366;stroke-miterlimit:4;stroke-dasharray:none;stroke-opacity:1"
           d="M -5,-5 V 9 m 0,-10 3,-3 2,-1 h 3 l 2,1 1,3 V 9"
           inkscape:connector-curvature="0" />
        <path
           id="path2086"
           transform="translate(182)"
           style="fill:none;fill-opacity:1;stroke:#0000ff;stroke-width:2.25954366;stroke-miterlimit:4;stroke-dasharray:none;stroke-opacity:1"
           d="M 6,-12 V 9 M 6,-2 4,-4 2,-5 h -3 l -2,1 -2,2 -1,3 v 2 l 1,3 2,2 2,1 H 2 L 4,8 6,6"
           inkscape:connector-curvature="0" />
        <path
           id="path2088"
           transform="translate(196)"
           style="fill:none;fill-opacity:1;stroke:#0000ff;stroke-width:2.25954366;stroke-miterlimit:4;stroke-dasharray:none;stroke-opacity:1"
           d="M 0,-12 V 9"
           inkscape:connector-curvature="0" />
        <path
           id="path2090"
           transform="translate(209)"
           style="fill:none;fill-opacity:1;stroke:#0000ff;stroke-width:2.25954366;stroke-miterlimit:4;stroke-dasharray:none;stroke-opacity:1"
           d="M -6,1 H 6 V -1 L 5,-3 4,-4 2,-5 h -3 l -2,1 -2,2 -1,3 v 2 l 1,3 2,2 2,1 H 2 L 4,8 6,6"
           inkscape:connector-curvature="0" />
        <path
           id="path2092"
           transform="translate(225)"
           style="fill:none;fill-opacity:1;stroke:#0000ff;stroke-width:2.25954366;stroke-miterlimit:4;stroke-dasharray:none;stroke-opacity:1"
           d="M -3,-5 V 9 m 0,-8 1,-3 2,-2 2,-1 h 3"
           inkscape:connector-curvature="0" />
      </g>
    </g>
  </g>
  <g
     id="g1013"
     transform="translate(55.426027,-88.668193)">
    <path
       style="fill:none;fill-opacity:1;fill-rule:nonzero;stroke:#000000;stroke-width:0.30000001;stroke-miterlimit:4;stroke-dasharray:none;stroke-opacity:1"
       d="m 214.90729,-307.85846 h 113 c 1.662,0 3,1.338 3,3 v 113 c 0,1.662 -1.338,3 -3,3 h -113 c -1.662,0 -3,-1.338 -3,-3 v -113 c 0,-1.662 1.338,-3 3,-3 z"
       id="rect870" />
    <path
       style="fill:none;fill-opacity:1;fill-rule:nonzero;stroke:#000000;stroke-width:0.30000001;stroke-miterlimit:4;stroke-dasharray:none;stroke-opacity:1"
       d="m 220.30197,-302.55841 h 45.50326 c 1.71443,0 3.09465,1.36189 3.09465,3.05356 v 45.58543 c 0,1.69168 -1.38022,3.05357 -3.09465,3.05357 h -45.50326 c -1.71444,0 -3.09465,-1.36189 -3.09465,-3.05357 v -45.58543 c 0,-1.69167 1.38021,-3.05356 3.09465,-3.05356 z"
       id="rect872" />
    <path
       style="fill:none;fill-opacity:1;fill-rule:nonzero;stroke:#000000;stroke-width:0.30000001;stroke-miterlimit:4;stroke-dasharray:none;stroke-opacity:1"
       d="m 277.59455,-302.55841 h 45.50327 c 1.71444,0 3.09465,1.36189 3.09465,3.05356 v 45.58543 c 0,1.69168 -1.38021,3.05357 -3.09465,3.05357 h -45.50327 c -1.71443,0 -3.09464,-1.36189 -3.09464,-3.05357 v -45.58543 c 0,-1.69167 1.38021,-3.05356 3.09464,-3.05356 z"
       id="rect872-7" />
    <path
       style="fill:none;fill-opacity:1;fill-rule:nonzero;stroke:#000000;stroke-width:0.30000001;stroke-miterlimit:4;stroke-dasharray:none;stroke-opacity:1"
       d="m 220.30197,-245.26581 h 45.50326 c 1.71444,0 3.09465,1.36189 3.09465,3.05357 v 45.58542 c 0,1.69168 -1.38021,3.05357 -3.09465,3.05357 h -45.50326 c -1.71444,0 -3.09465,-1.36189 -3.09465,-3.05357 v -45.58542 c 0,-1.69168 1.38021,-3.05357 3.09465,-3.05357 z"
       id="rect872-7-5" />
    <path
       style="fill:none;fill-opacity:1;fill-rule:nonzero;stroke:#000000;stroke-width:0.30000001;stroke-miterlimit:4;stroke-dasharray:none;stroke-opacity:1"
       d="m 277.59455,-245.26581 h 45.50327 c 1.71444,0 3.09465,1.36189 3.09465,3.05357 v 45.58542 c 0,1.69168 -1.38021,3.05357 -3.09465,3.05357 h -45.50327 c -1.71443,0 -3.09464,-1.36189 -3.09464,-3.05357 v -45.58542 c 0,-1.69168 1.38021,-3.05357 3.09464,-3.05357 z"
       id="rect872-7-9" />
  </g>
  <path
     style="fill:none;stroke:#000000;stroke-width:0.30000001;stroke-miterlimit:4;stroke-dasharray:none;stroke-opacity:1"
     d="m 8.16875,-257.525 h 10.1667 v 3 h 20.3333 v -3 h 10.1667 10.1666 v 3 h 20.3334 v -3 h 10.1666 10.1667 v 3 h 20.3333 v -3 h 10.1667 v -11.25 h 3 v -22.5 h -3 v -11.25 -11.25 h 3 v -22.5 h -3 v -11.25 -11.25 h 3 v -22.5 h -3 v -11.25 h -10.1667 v -3 h -20.3333 v 3 h -10.1667 -10.1666 v -3 h -20.3334 v 3 h -10.1666 -10.1667 v -3 h -20.3333 v 3 H 8.16875 v 11.25 h -3 v 22.5 h 3 v 11.25 11.25 h -3 v 22.5 h 3 v 11.25 11.25 h -3 v 22.5 h 3 v 11.25"
     id="polyline6"
     inkscape:connector-curvature="0" />
  <g
     id="g1027">
    <path
       inkscape:connector-curvature="0"
       id="path835"
       d="m 124.12096,-320.47721 a 54.952213,54.952213 0 0 1 -54.95221,54.95221 54.952213,54.952213 0 0 1 -54.952213,-54.95221 54.952213,54.952213 0 0 1 54.952213,-54.95221 54.952213,54.952213 0 0 1 54.95221,54.95221 z"
       style="fill:none;fill-opacity:1;fill-rule:nonzero;stroke:#000000;stroke-width:0.30000001;stroke-miterlimit:4;stroke-dasharray:none;stroke-opacity:1" />
    <path
       inkscape:connector-curvature="0"
       id="path835-3-6"
       d="m 124.61925,-267.8767 a 2.8500032,2.8500032 0 0 1 -2.85,2.85 2.8500032,2.8500032 0 0 1 -2.85,-2.85 2.8500032,2.8500032 0 0 1 2.85,-2.85 2.8500032,2.8500032 0 0 1 2.85,2.85 z"
       style="fill:none;fill-opacity:1;fill-rule:nonzero;stroke:#000000;stroke-width:0.30000001;stroke-miterlimit:4;stroke-dasharray:none;stroke-opacity:1" />
    <path
       inkscape:connector-curvature="0"
       id="path835-3-6-3"
       d="m 19.418249,-267.8767 a 2.8499999,2.8499999 0 0 1 -2.85,2.85 2.8499999,2.8499999 0 0 1 -2.85,-2.85 2.8499999,2.8499999 0 0 1 2.85,-2.84999 2.8499999,2.8499999 0 0 1 2.85,2.84999 z"
       style="fill:none;fill-opacity:1;fill-rule:nonzero;stroke:#000000;stroke-width:0.30000001;stroke-miterlimit:4;stroke-dasharray:none;stroke-opacity:1" />
    <path
       inkscape:connector-curvature="0"
       id="path835-3-6-9"
       d="m 19.418249,-373.0777 a 2.8499999,2.8499999 0 0 1 -2.85,2.84999 2.8499999,2.8499999 0 0 1 -2.85,-2.84999 2.8499999,2.8499999 0 0 1 2.85,-2.85 2.8499999,2.8499999 0 0 1 2.85,2.85 z"
       style="fill:none;fill-opacity:1;fill-rule:nonzero;stroke:#000000;stroke-width:0.30000001;stroke-miterlimit:4;stroke-dasharray:none;stroke-opacity:1" />
    <path
       inkscape:connector-curvature="0"
       id="path835-3-6-7"
       d="m 124.61925,-373.0777 a 2.8500032,2.8500032 0 0 1 -2.85,2.85 2.8500032,2.8500032 0 0 1 -2.85,-2.85 2.8500032,2.8500032 0 0 1 2.85,-2.85 2.8500032,2.8500032 0 0 1 2.85,2.85 z"
       style="fill:none;fill-opacity:1;fill-rule:nonzero;stroke:#000000;stroke-width:0.30000001;stroke-miterlimit:4;stroke-dasharray:none;stroke-opacity:1" />
    <path
       style="fill:none;stroke:#000000;stroke-width:0.30000001;stroke-miterlimit:4;stroke-dasharray:none;stroke-opacity:1"
       d="m 74.76875,-384.92499 a 5.5999999,5.5999999 0 0 1 -5.6,5.6 5.5999999,5.5999999 0 0 1 -5.6,-5.6 5.5999999,5.5999999 0 0 1 5.6,-5.6 5.5999999,5.5999999 0 0 1 5.6,5.6 z"
       id="path4699"
       inkscape:connector-curvature="0" />
  </g>
  <g
     id="g1069"
     transform="translate(-1.6608111)">
    <circle
       r="9.8994999"
       cy="-378.27487"
       cx="157.32539"
       id="path1029"
       style="fill:none;stroke:#0000ff;stroke-width:0.20099999;stroke-miterlimit:4;stroke-dasharray:none" />
    <circle
       r="3.8994999"
       cy="-378.27487"
       cx="157.32539"
       id="path1046"
       style="fill:none;stroke:#ff4e00;stroke-width:0.20099998;stroke-miterlimit:4;stroke-dasharray:none;stroke-opacity:1" />
  </g>
  <g
     id="g1065"
     transform="translate(-1.1215679,-0.91925049)">
    <circle
       r="9.8994999"
       cy="-377.35562"
       cx="245.08615"
       id="path1029-1"
       style="fill:none;stroke:#0000ff;stroke-width:0.20100001;stroke-miterlimit:4;stroke-dasharray:none" />
    <circle
       r="3.8995001"
       cy="-377.35562"
       cx="245.08615"
       id="path1046-1"
       style="fill:none;stroke:#ff4e00;stroke-width:0.20099999;stroke-miterlimit:4;stroke-dasharray:none;stroke-opacity:1" />
  </g>
</svg>
