  0
SECTION
  2
HEADER
  9
$ACADVER
  1
AC1014
  9
$HANDSEED
  5
FFFF
  9
$MEASUREMENT
 70
     1
  0
ENDSEC
  0
SECTION
  2
TABLES
  0
TABLE
  2
VPORT
  5
8
330
0
100
AcDbSymbolTable
 70
     4
  0
VPORT
  5
2E
330
8
100
AcDbSymbolTableRecord
100
AcDbViewportTableRecord
  2
*ACTIVE
 70
     0
 10
0.0
 20
0.0
 11
1.0
 21
1.0
 12
210.0
 22
148.5
 13
0.0
 23
0.0
 14
10.0
 24
10.0
 15
10.0
 25
10.0
 16
0.0
 26
0.0
 36
1.0
 17
0.0
 27
0.0
 37
0.0
 40
341.0
 41
1.24
 42
50.0
 43
0.0
 44
0.0
 50
0.0
 51
0.0
 71
     0
 72
   100
 73
     1
 74
     3
 75
     0
 76
     0
 77
     0
 78
     0
  0
ENDTAB
  0
TABLE
  2
LTYPE
  5
5
330
0
100
AcDbSymbolTable
 70
     1
  0
LTYPE
  5
14
330
5
100
AcDbSymbolTableRecord
100
AcDbLinetypeTableRecord
  2
BYBLOCK
 70
     0
  3

 72
    65
 73
     0
 40
0.0
  0
LTYPE
  5
15
330
5
100
AcDbSymbolTableRecord
100
AcDbLinetypeTableRecord
  2
BYLAYER
 70
     0
  3

 72
    65
 73
     0
 40
0.0
  0
LTYPE
  5
16
330
5
100
AcDbSymbolTableRecord
100
AcDbLinetypeTableRecord
  2
CONTINUOUS
 70
     0
  3
Solid line
 72
    65
 73
     0
 40
0.0
  0
ENDTAB
  0
TABLE
  2
LAYER
  5
2
100
AcDbSymbolTable
 70
1
  0
LAYER
  5
50
100
AcDbSymbolTableRecord
100
AcDbLayerTableRecord
  2
0
 70
0
  6
CONTINUOUS
  0
ENDTAB
  0
TABLE
  2
STYLE
  5
3
330
0
100
AcDbSymbolTable
 70
     1
  0
STYLE
  5
11
330
3
100
AcDbSymbolTableRecord
100
AcDbTextStyleTableRecord
  2
STANDARD
 70
     0
 40
0.0
 41
1.0
 50
0.0
 71
     0
 42
2.5
  3
txt
  4

  0
ENDTAB
  0
TABLE
  2
VIEW
  5
6
330
0
100
AcDbSymbolTable
 70
     0
  0
ENDTAB
  0
TABLE
  2
UCS
  5
7
330
0
100
AcDbSymbolTable
 70
     0
  0
ENDTAB
  0
TABLE
  2
APPID
  5
9
330
0
100
AcDbSymbolTable
 70
     2
  0
APPID
  5
12
330
9
100
AcDbSymbolTableRecord
100
AcDbRegAppTableRecord
  2
ACAD
 70
     0
  0
ENDTAB
  0
TABLE
  2
DIMSTYLE
  5
A
330
0
100
AcDbSymbolTable
 70
     1
  0
DIMSTYLE
105
27
330
A
100
AcDbSymbolTableRecord
100
AcDbDimStyleTableRecord
  2
ISO-25
 70
     0
  3

  4

  5

  6

  7

 40
1.0
 41
2.5
 42
0.625
 43
3.75
 44
1.25
 45
0.0
 46
0.0
 47
0.0
 48
0.0
140
2.5
141
2.5
142
0.0
143
0.03937007874016
144
1.0
145
0.0
146
1.0
147
0.625
 71
     0
 72
     0
 73
     0
 74
     0
 75
     0
 76
     0
 77
     1
 78
     8
170
     0
171
     3
172
     1
173
     0
174
     0
175
     0
176
     0
177
     0
178
     0
270
     2
271
     2
272
     2
273
     2
274
     3
340
11
275
     0
280
     0
281
     0
282
     0
283
     0
284
     8
285
     0
286
     0
287
     3
288
     0
  0
ENDTAB
  0
TABLE
  2
BLOCK_RECORD
  5
1
330
0
100
AcDbSymbolTable
 70
     1
  0
BLOCK_RECORD
  5
1F
330
1
100
AcDbSymbolTableRecord
100
AcDbBlockTableRecord
  2
*MODEL_SPACE
  0
BLOCK_RECORD
  5
1B
330
1
100
AcDbSymbolTableRecord
100
AcDbBlockTableRecord
  2
*PAPER_SPACE
  0
ENDTAB
  0
ENDSEC
  0
SECTION
  2
BLOCKS
  0
BLOCK
  5
20
330
1F
100
AcDbEntity
  8
0
100
AcDbBlockBegin
  2
*MODEL_SPACE
 70
     0
 10
0.0
 20
0.0
 30
0.0
  3
*MODEL_SPACE
  1

  0
ENDBLK
  5
21
330
1F
100
AcDbEntity
  8
0
100
AcDbBlockEnd
  0
BLOCK
  5
1C
330
1B
100
AcDbEntity
 67
     1
  8
0
100
AcDbBlockBegin
  2
*PAPER_SPACE
  1

  0
ENDBLK
  5
1D
330
1B
100
AcDbEntity
 67
     1
  8
0
100
AcDbBlockEnd
  0
ENDSEC
  0
SECTION
  2
ENTITIES
  0
LWPOLYLINE
  5
100
100
AcDbEntity
  8
0
 62
7
100
AcDbPolyline
 90
46
 70
1
 10
5.168751
 20
806.583333
 30
0.0
 10
8.168751
 20
806.583333
 30
0.0
 10
18.335451
 20
806.583333
 30
0.0
 10
18.335451
 20
809.583333
 30
0.0
 10
38.668751
 20
809.583333
 30
0.0
 10
38.668751
 20
806.583333
 30
0.0
 10
48.835451
 20
806.583333
 30
0.0
 10
59.002051
 20
806.583333
 30
0.0
 10
59.002051
 20
809.583333
 30
0.0
 10
79.335451
 20
809.583333
 30
0.0
 10
79.335451
 20
806.583333
 30
0.0
 10
89.502051
 20
806.583333
 30
0.0
 10
99.668751
 20
806.583333
 30
0.0
 10
99.668751
 20
809.583333
 30
0.0
 10
120.002051
 20
809.583333
 30
0.0
 10
120.002051
 20
806.583333
 30
0.0
 10
130.168751
 20
806.583333
 30
0.0
 10
130.168751
 20
809.583333
 30
0.0
 10
130.168751
 20
819.583333
 30
0.0
 10
133.168751
 20
819.583333
 30
0.0
 10
133.168751
 20
839.583333
 30
0.0
 10
130.168751
 20
839.583333
 30
0.0
 10
130.168751
 20
849.583333
 30
0.0
 10
130.168751
 20
852.583333
 30
0.0
 10
120.002051
 20
852.583333
 30
0.0
 10
120.002051
 20
849.583333
 30
0.0
 10
99.668751
 20
849.583333
 30
0.0
 10
99.668751
 20
852.583333
 30
0.0
 10
89.502051
 20
852.583333
 30
0.0
 10
79.335451
 20
852.583333
 30
0.0
 10
79.335451
 20
849.583333
 30
0.0
 10
59.002051
 20
849.583333
 30
0.0
 10
59.002051
 20
852.583333
 30
0.0
 10
48.835451
 20
852.583333
 30
0.0
 10
38.668751
 20
852.583333
 30
0.0
 10
38.668751
 20
849.583333
 30
0.0
 10
18.335451
 20
849.583333
 30
0.0
 10
18.335451
 20
852.583333
 30
0.0
 10
8.168751
 20
852.583333
 30
0.0
 10
5.168751
 20
852.583333
 30
0.0
 10
5.168751
 20
849.583333
 30
0.0
 10
5.168751
 20
839.583333
 30
0.0
 10
8.168751
 20
839.583333
 30
0.0
 10
8.168751
 20
819.583333
 30
0.0
 10
5.168751
 20
819.583333
 30
0.0
 10
5.168751
 20
809.583333
 30
0.0
  0
LWPOLYLINE
  5
101
100
AcDbEntity
  8
0
 62
7
100
AcDbPolyline
 90
60
 70
1
 10
138.814583
 20
857.525000
 30
0.0
 10
148.981283
 20
857.525000
 30
0.0
 10
148.981283
 20
854.525000
 30
0.0
 10
169.314583
 20
854.525000
 30
0.0
 10
169.314583
 20
857.525000
 30
0.0
 10
179.481283
 20
857.525000
 30
0.0
 10
189.647883
 20
857.525000
 30
0.0
 10
189.647883
 20
854.525000
 30
0.0
 10
209.981283
 20
854.525000
 30
0.0
 10
209.981283
 20
857.525000
 30
0.0
 10
220.147883
 20
857.525000
 30
0.0
 10
230.314583
 20
857.525000
 30
0.0
 10
230.314583
 20
854.525000
 30
0.0
 10
250.647883
 20
854.525000
 30
0.0
 10
250.647883
 20
857.525000
 30
0.0
 10
260.814583
 20
857.525000
 30
0.0
 10
260.814583
 20
868.775000
 30
0.0
 10
263.814583
 20
868.775000
 30
0.0
 10
263.814583
 20
891.275000
 30
0.0
 10
260.814583
 20
891.275000
 30
0.0
 10
260.814583
 20
902.525000
 30
0.0
 10
260.814583
 20
913.775000
 30
0.0
 10
263.814583
 20
913.775000
 30
0.0
 10
263.814583
 20
936.275000
 30
0.0
 10
260.814583
 20
936.275000
 30
0.0
 10
260.814583
 20
947.525000
 30
0.0
 10
260.814583
 20
958.775000
 30
0.0
 10
263.814583
 20
958.775000
 30
0.0
 10
263.814583
 20
981.275000
 30
0.0
 10
260.814583
 20
981.275000
 30
0.0
 10
260.814583
 20
992.525000
 30
0.0
 10
250.647883
 20
992.525000
 30
0.0
 10
250.647883
 20
995.525000
 30
0.0
 10
230.314583
 20
995.525000
 30
0.0
 10
230.314583
 20
992.525000
 30
0.0
 10
220.147883
 20
992.525000
 30
0.0
 10
209.981283
 20
992.525000
 30
0.0
 10
209.981283
 20
995.525000
 30
0.0
 10
189.647883
 20
995.525000
 30
0.0
 10
189.647883
 20
992.525000
 30
0.0
 10
179.481283
 20
992.525000
 30
0.0
 10
169.314583
 20
992.525000
 30
0.0
 10
169.314583
 20
995.525000
 30
0.0
 10
148.981283
 20
995.525000
 30
0.0
 10
148.981283
 20
992.525000
 30
0.0
 10
138.814583
 20
992.525000
 30
0.0
 10
138.814583
 20
981.275000
 30
0.0
 10
135.814583
 20
981.275000
 30
0.0
 10
135.814583
 20
958.775000
 30
0.0
 10
138.814583
 20
958.775000
 30
0.0
 10
138.814583
 20
947.525000
 30
0.0
 10
138.814583
 20
936.275000
 30
0.0
 10
135.814583
 20
936.275000
 30
0.0
 10
135.814583
 20
913.775000
 30
0.0
 10
138.814583
 20
913.775000
 30
0.0
 10
138.814583
 20
902.525000
 30
0.0
 10
138.814583
 20
891.275000
 30
0.0
 10
135.814583
 20
891.275000
 30
0.0
 10
135.814583
 20
868.775000
 30
0.0
 10
138.814583
 20
868.775000
 30
0.0
  0
SPLINE
  5
102
100
AcDbEntity
  8
0
 62
7
100
AcDbSpline
 70
8
 71
3
 72
8
 73
4
 74
0
 40
0
 40
0
 40
0
 40
0
 40
1
 40
1
 40
1
 40
1
 10
249.814583
 20
915.525000
 30
0.0
 10
249.814583
 20
882.191667
 30
0.0
 10
233.147916
 20
865.525000
 30
0.0
 10
199.814583
 20
865.525000
 30
0.0
  0
LWPOLYLINE
  5
103
100
AcDbEntity
  8
0
 62
7
100
AcDbPolyline
 90
3
 70
0
 10
149.814583
 20
965.525000
 30
0.0
 10
249.814583
 20
965.525000
 30
0.0
 10
249.814583
 20
915.525000
 30
0.0
  0
SPLINE
  5
104
100
AcDbEntity
  8
0
 62
7
100
AcDbSpline
 70
8
 71
3
 72
8
 73
4
 74
0
 40
0
 40
0
 40
0
 40
0
 40
1
 40
1
 40
1
 40
1
 10
199.814583
 20
865.525000
 30
0.0
 10
166.481250
 20
865.525000
 30
0.0
 10
149.814583
 20
882.191667
 30
0.0
 10
149.814583
 20
915.525000
 30
0.0
  0
LWPOLYLINE
  5
105
100
AcDbEntity
  8
0
 62
7
100
AcDbPolyline
 90
1
 70
1
 10
199.814583
 20
865.525000
 30
0.0
  0
SPLINE
  5
106
100
AcDbEntity
  8
0
 62
7
100
AcDbSpline
 70
8
 71
3
 72
8
 73
4
 74
0
 40
0
 40
0
 40
0
 40
0
 40
1
 40
1
 40
1
 40
1
 10
188.790913
 20
878.025008
 30
0.0
 10
188.790913
 20
877.957078
 30
0.0
 10
188.763928
 20
877.891930
 30
0.0
 10
188.715895
 20
877.843896
 30
0.0
  0
SPLINE
  5
107
100
AcDbEntity
  8
0
 62
7
100
AcDbSpline
 70
8
 71
3
 72
8
 73
4
 74
0
 40
0
 40
0
 40
0
 40
0
 40
1
 40
1
 40
1
 40
1
 10
188.715895
 20
877.843896
 30
0.0
 10
188.667861
 20
877.795862
 30
0.0
 10
188.602713
 20
877.768877
 30
0.0
 10
188.534783
 20
877.768877
 30
0.0
  0
SPLINE
  5
108
100
AcDbEntity
  8
0
 62
7
100
AcDbSpline
 70
8
 71
3
 72
8
 73
4
 74
0
 40
0
 40
0
 40
0
 40
0
 40
1
 40
1
 40
1
 40
1
 10
188.534783
 20
877.768877
 30
0.0
 10
188.466853
 20
877.768877
 30
0.0
 10
188.401705
 20
877.795862
 30
0.0
 10
188.353672
 20
877.843896
 30
0.0
  0
SPLINE
  5
109
100
AcDbEntity
  8
0
 62
7
100
AcDbSpline
 70
8
 71
3
 72
8
 73
4
 74
0
 40
0
 40
0
 40
0
 40
0
 40
1
 40
1
 40
1
 40
1
 10
188.353672
 20
877.843896
 30
0.0
 10
188.305638
 20
877.891930
 30
0.0
 10
188.278653
 20
877.957078
 30
0.0
 10
188.278653
 20
878.025008
 30
0.0
  0
SPLINE
  5
10a
100
AcDbEntity
  8
0
 62
7
100
AcDbSpline
 70
8
 71
3
 72
8
 73
4
 74
0
 40
0
 40
0
 40
0
 40
0
 40
1
 40
1
 40
1
 40
1
 10
188.278653
 20
878.025008
 30
0.0
 10
188.278653
 20
878.166465
 30
0.0
 10
188.393326
 20
878.281138
 30
0.0
 10
188.534783
 20
878.281138
 30
0.0
  0
SPLINE
  5
10b
100
AcDbEntity
  8
0
 62
7
100
AcDbSpline
 70
8
 71
3
 72
8
 73
4
 74
0
 40
0
 40
0
 40
0
 40
0
 40
1
 40
1
 40
1
 40
1
 10
188.534783
 20
878.281138
 30
0.0
 10
188.676240
 20
878.281138
 30
0.0
 10
188.790913
 20
878.166465
 30
0.0
 10
188.790913
 20
878.025008
 30
0.0
  0
LWPOLYLINE
  5
10c
100
AcDbEntity
  8
0
 62
7
100
AcDbPolyline
 90
2
 70
0
 10
149.814583
 20
915.525000
 30
0.0
 10
149.814583
 20
965.525000
 30
0.0
  0
SPLINE
  5
10d
100
AcDbEntity
  8
0
 62
7
100
AcDbSpline
 70
8
 71
3
 72
8
 73
4
 74
0
 40
0
 40
0
 40
0
 40
0
 40
1
 40
1
 40
1
 40
1
 10
188.534783
 20
962.982840
 30
0.0
 10
194.051433
 20
962.982840
 30
0.0
 10
198.492623
 20
958.522840
 30
0.0
 10
198.492623
 20
952.982840
 30
0.0
  0
LWPOLYLINE
  5
10e
100
AcDbEntity
  8
0
 62
7
100
AcDbPolyline
 90
1
 70
1
 10
188.790913
 20
878.025008
 30
0.0
  0
SPLINE
  5
10f
100
AcDbEntity
  8
0
 62
7
100
AcDbSpline
 70
8
 71
3
 72
8
 73
4
 74
0
 40
0
 40
0
 40
0
 40
0
 40
1
 40
1
 40
1
 40
1
 10
198.492623
 20
878.067160
 30
0.0
 10
198.492623
 20
872.527160
 30
0.0
 10
194.051433
 20
868.067160
 30
0.0
 10
188.534783
 20
868.067160
 30
0.0
  0
SPLINE
  5
110
100
AcDbEntity
  8
0
 62
7
100
AcDbSpline
 70
8
 71
3
 72
8
 73
4
 74
0
 40
0
 40
0
 40
0
 40
0
 40
1
 40
1
 40
1
 40
1
 10
188.534783
 20
868.067160
 30
0.0
 10
183.018140
 20
868.067160
 30
0.0
 10
178.576943
 20
872.527160
 30
0.0
 10
178.576943
 20
878.067160
 30
0.0
  0
LWPOLYLINE
  5
111
100
AcDbEntity
  8
0
 62
7
100
AcDbPolyline
 90
2
 70
0
 10
198.492623
 20
952.982840
 30
0.0
 10
198.492623
 20
878.067160
 30
0.0
  0
SPLINE
  5
112
100
AcDbEntity
  8
0
 62
7
100
AcDbSpline
 70
8
 71
3
 72
8
 73
4
 74
0
 40
0
 40
0
 40
0
 40
0
 40
1
 40
1
 40
1
 40
1
 10
178.576943
 20
952.982840
 30
0.0
 10
178.576943
 20
958.522840
 30
0.0
 10
183.018140
 20
962.982840
 30
0.0
 10
188.534783
 20
962.982840
 30
0.0
  0
LWPOLYLINE
  5
113
100
AcDbEntity
  8
0
 62
7
100
AcDbPolyline
 90
2
 70
0
 10
178.576943
 20
878.067160
 30
0.0
 10
178.576943
 20
952.982840
 30
0.0
  0
SPLINE
  5
114
100
AcDbEntity
  8
0
 62
7
100
AcDbSpline
 70
8
 71
3
 72
8
 73
4
 74
0
 40
0
 40
0
 40
0
 40
0
 40
1
 40
1
 40
1
 40
1
 10
211.350513
 20
878.025008
 30
0.0
 10
211.350513
 20
877.957078
 30
0.0
 10
211.323528
 20
877.891930
 30
0.0
 10
211.275495
 20
877.843896
 30
0.0
  0
SPLINE
  5
115
100
AcDbEntity
  8
0
 62
7
100
AcDbSpline
 70
8
 71
3
 72
8
 73
4
 74
0
 40
0
 40
0
 40
0
 40
0
 40
1
 40
1
 40
1
 40
1
 10
211.275495
 20
877.843896
 30
0.0
 10
211.227461
 20
877.795862
 30
0.0
 10
211.162313
 20
877.768877
 30
0.0
 10
211.094383
 20
877.768877
 30
0.0
  0
SPLINE
  5
116
100
AcDbEntity
  8
0
 62
7
100
AcDbSpline
 70
8
 71
3
 72
8
 73
4
 74
0
 40
0
 40
0
 40
0
 40
0
 40
1
 40
1
 40
1
 40
1
 10
211.094383
 20
877.768877
 30
0.0
 10
211.026453
 20
877.768877
 30
0.0
 10
210.961305
 20
877.795862
 30
0.0
 10
210.913272
 20
877.843896
 30
0.0
  0
SPLINE
  5
117
100
AcDbEntity
  8
0
 62
7
100
AcDbSpline
 70
8
 71
3
 72
8
 73
4
 74
0
 40
0
 40
0
 40
0
 40
0
 40
1
 40
1
 40
1
 40
1
 10
210.913272
 20
877.843896
 30
0.0
 10
210.865238
 20
877.891930
 30
0.0
 10
210.838253
 20
877.957078
 30
0.0
 10
210.838253
 20
878.025008
 30
0.0
  0
SPLINE
  5
118
100
AcDbEntity
  8
0
 62
7
100
AcDbSpline
 70
8
 71
3
 72
8
 73
4
 74
0
 40
0
 40
0
 40
0
 40
0
 40
1
 40
1
 40
1
 40
1
 10
210.838253
 20
878.025008
 30
0.0
 10
210.838253
 20
878.166465
 30
0.0
 10
210.952926
 20
878.281138
 30
0.0
 10
211.094383
 20
878.281138
 30
0.0
  0
SPLINE
  5
119
100
AcDbEntity
  8
0
 62
7
100
AcDbSpline
 70
8
 71
3
 72
8
 73
4
 74
0
 40
0
 40
0
 40
0
 40
0
 40
1
 40
1
 40
1
 40
1
 10
211.094383
 20
878.281138
 30
0.0
 10
211.235840
 20
878.281138
 30
0.0
 10
211.350513
 20
878.166465
 30
0.0
 10
211.350513
 20
878.025008
 30
0.0
  0
LWPOLYLINE
  5
11a
100
AcDbEntity
  8
0
 62
7
100
AcDbPolyline
 90
1
 70
1
 10
188.534783
 20
962.982840
 30
0.0
  0
SPLINE
  5
11b
100
AcDbEntity
  8
0
 62
7
100
AcDbSpline
 70
8
 71
3
 72
8
 73
4
 74
0
 40
0
 40
0
 40
0
 40
0
 40
1
 40
1
 40
1
 40
1
 10
211.094383
 20
962.982840
 30
0.0
 10
216.611033
 20
962.982840
 30
0.0
 10
221.052223
 20
958.522840
 30
0.0
 10
221.052223
 20
952.982840
 30
0.0
  0
LWPOLYLINE
  5
11c
100
AcDbEntity
  8
0
 62
7
100
AcDbPolyline
 90
1
 70
1
 10
211.350513
 20
878.025008
 30
0.0
  0
SPLINE
  5
11d
100
AcDbEntity
  8
0
 62
7
100
AcDbSpline
 70
8
 71
3
 72
8
 73
4
 74
0
 40
0
 40
0
 40
0
 40
0
 40
1
 40
1
 40
1
 40
1
 10
221.052223
 20
878.067160
 30
0.0
 10
221.052223
 20
872.527160
 30
0.0
 10
216.611033
 20
868.067160
 30
0.0
 10
211.094383
 20
868.067160
 30
0.0
  0
SPLINE
  5
11e
100
AcDbEntity
  8
0
 62
7
100
AcDbSpline
 70
8
 71
3
 72
8
 73
4
 74
0
 40
0
 40
0
 40
0
 40
0
 40
1
 40
1
 40
1
 40
1
 10
211.094383
 20
868.067160
 30
0.0
 10
205.577743
 20
868.067160
 30
0.0
 10
201.136543
 20
872.527160
 30
0.0
 10
201.136543
 20
878.067160
 30
0.0
  0
LWPOLYLINE
  5
11f
100
AcDbEntity
  8
0
 62
7
100
AcDbPolyline
 90
2
 70
0
 10
221.052223
 20
952.982840
 30
0.0
 10
221.052223
 20
878.067160
 30
0.0
  0
SPLINE
  5
120
100
AcDbEntity
  8
0
 62
7
100
AcDbSpline
 70
8
 71
3
 72
8
 73
4
 74
0
 40
0
 40
0
 40
0
 40
0
 40
1
 40
1
 40
1
 40
1
 10
201.136543
 20
952.982840
 30
0.0
 10
201.136543
 20
958.522840
 30
0.0
 10
205.577743
 20
962.982840
 30
0.0
 10
211.094383
 20
962.982840
 30
0.0
  0
LWPOLYLINE
  5
121
100
AcDbEntity
  8
0
 62
7
100
AcDbPolyline
 90
2
 70
0
 10
201.136543
 20
878.067160
 30
0.0
 10
201.136543
 20
952.982840
 30
0.0
  0
LWPOLYLINE
  5
122
100
AcDbEntity
  8
0
 62
7
100
AcDbPolyline
 90
1
 70
1
 10
211.094383
 20
962.982840
 30
0.0
  0
SPLINE
  5
123
100
AcDbEntity
  8
0
 62
7
100
AcDbSpline
 70
8
 71
3
 72
8
 73
4
 74
0
 40
0
 40
0
 40
0
 40
0
 40
1
 40
1
 40
1
 40
1
 10
276.871150
 20
782.874780
 30
0.0
 10
276.939082
 20
782.874783
 30
0.0
 10
277.004232
 20
782.847799
 30
0.0
 10
277.052268
 20
782.799765
 30
0.0
  0
SPLINE
  5
124
100
AcDbEntity
  8
0
 62
7
100
AcDbSpline
 70
8
 71
3
 72
8
 73
4
 74
0
 40
0
 40
0
 40
0
 40
0
 40
1
 40
1
 40
1
 40
1
 10
277.052268
 20
782.799765
 30
0.0
 10
277.100303
 20
782.751731
 30
0.0
 10
277.127290
 20
782.686582
 30
0.0
 10
277.127290
 20
782.618650
 30
0.0
  0
SPLINE
  5
125
100
AcDbEntity
  8
0
 62
7
100
AcDbSpline
 70
8
 71
3
 72
8
 73
4
 74
0
 40
0
 40
0
 40
0
 40
0
 40
1
 40
1
 40
1
 40
1
 10
277.127290
 20
782.618650
 30
0.0
 10
277.127290
 20
782.550718
 30
0.0
 10
277.100303
 20
782.485569
 30
0.0
 10
277.052268
 20
782.437535
 30
0.0
  0
SPLINE
  5
126
100
AcDbEntity
  8
0
 62
7
100
AcDbSpline
 70
8
 71
3
 72
8
 73
4
 74
0
 40
0
 40
0
 40
0
 40
0
 40
1
 40
1
 40
1
 40
1
 10
277.052268
 20
782.437535
 30
0.0
 10
277.004232
 20
782.389501
 30
0.0
 10
276.939082
 20
782.362517
 30
0.0
 10
276.871150
 20
782.362520
 30
0.0
  0
SPLINE
  5
127
100
AcDbEntity
  8
0
 62
7
100
AcDbSpline
 70
8
 71
3
 72
8
 73
4
 74
0
 40
0
 40
0
 40
0
 40
0
 40
1
 40
1
 40
1
 40
1
 10
276.871150
 20
782.362520
 30
0.0
 10
276.729693
 20
782.362520
 30
0.0
 10
276.615020
 20
782.477193
 30
0.0
 10
276.615020
 20
782.618650
 30
0.0
  0
SPLINE
  5
128
100
AcDbEntity
  8
0
 62
7
100
AcDbSpline
 70
8
 71
3
 72
8
 73
4
 74
0
 40
0
 40
0
 40
0
 40
0
 40
1
 40
1
 40
1
 40
1
 10
276.615020
 20
782.618650
 30
0.0
 10
276.615020
 20
782.760107
 30
0.0
 10
276.729693
 20
782.874780
 30
0.0
 10
276.871150
 20
782.874780
 30
0.0
  0
LWPOLYLINE
  5
129
100
AcDbEntity
  8
0
 62
7
100
AcDbPolyline
 90
46
 70
1
 10
287.127286
 20
759.618654
 30
0.0
 10
287.127286
 20
762.618654
 30
0.0
 10
287.127286
 20
772.618654
 30
0.0
 10
284.127286
 20
772.618654
 30
0.0
 10
284.127286
 20
792.618654
 30
0.0
 10
287.127286
 20
792.618654
 30
0.0
 10
287.127286
 20
802.618654
 30
0.0
 10
287.127286
 20
805.618654
 30
0.0
 10
284.127286
 20
805.618654
 30
0.0
 10
272.877286
 20
805.618654
 30
0.0
 10
272.877286
 20
802.618654
 30
0.0
 10
250.377286
 20
802.618654
 30
0.0
 10
250.377286
 20
805.618654
 30
0.0
 10
239.127286
 20
805.618654
 30
0.0
 10
227.877286
 20
805.618654
 30
0.0
 10
227.877286
 20
802.618654
 30
0.0
 10
205.377286
 20
802.618654
 30
0.0
 10
205.377286
 20
805.618654
 30
0.0
 10
194.127286
 20
805.618654
 30
0.0
 10
182.877286
 20
805.618654
 30
0.0
 10
182.877286
 20
802.618654
 30
0.0
 10
160.377286
 20
802.618654
 30
0.0
 10
160.377286
 20
805.618654
 30
0.0
 10
149.127286
 20
805.618654
 30
0.0
 10
149.127286
 20
802.618654
 30
0.0
 10
149.127286
 20
792.618654
 30
0.0
 10
146.127286
 20
792.618654
 30
0.0
 10
146.127286
 20
772.618654
 30
0.0
 10
149.127286
 20
772.618654
 30
0.0
 10
149.127286
 20
762.618654
 30
0.0
 10
149.127286
 20
759.618654
 30
0.0
 10
160.377286
 20
759.618654
 30
0.0
 10
160.377286
 20
762.618654
 30
0.0
 10
182.877286
 20
762.618654
 30
0.0
 10
182.877286
 20
759.618654
 30
0.0
 10
194.127286
 20
759.618654
 30
0.0
 10
205.377286
 20
759.618654
 30
0.0
 10
205.377286
 20
762.618654
 30
0.0
 10
227.877286
 20
762.618654
 30
0.0
 10
227.877286
 20
759.618654
 30
0.0
 10
239.127286
 20
759.618654
 30
0.0
 10
250.377286
 20
759.618654
 30
0.0
 10
250.377286
 20
762.618654
 30
0.0
 10
272.877286
 20
762.618654
 30
0.0
 10
272.877286
 20
759.618654
 30
0.0
 10
284.127286
 20
759.618654
 30
0.0
  0
LWPOLYLINE
  5
12a
100
AcDbEntity
  8
0
 62
7
100
AcDbPolyline
 90
1
 70
1
 10
276.871150
 20
782.874780
 30
0.0
  0
SPLINE
  5
12b
100
AcDbEntity
  8
0
 62
7
100
AcDbSpline
 70
8
 71
3
 72
8
 73
4
 74
0
 40
0
 40
0
 40
0
 40
0
 40
1
 40
1
 40
1
 40
1
 10
134.895460
 20
782.847290
 30
0.0
 10
135.036917
 20
782.847290
 30
0.0
 10
135.151590
 20
782.732617
 30
0.0
 10
135.151590
 20
782.591160
 30
0.0
  0
SPLINE
  5
12c
100
AcDbEntity
  8
0
 62
7
100
AcDbSpline
 70
8
 71
3
 72
8
 73
4
 74
0
 40
0
 40
0
 40
0
 40
0
 40
1
 40
1
 40
1
 40
1
 10
135.151590
 20
782.591160
 30
0.0
 10
135.151590
 20
782.449703
 30
0.0
 10
135.036917
 20
782.335030
 30
0.0
 10
134.895460
 20
782.335030
 30
0.0
  0
SPLINE
  5
12d
100
AcDbEntity
  8
0
 62
7
100
AcDbSpline
 70
8
 71
3
 72
8
 73
4
 74
0
 40
0
 40
0
 40
0
 40
0
 40
1
 40
1
 40
1
 40
1
 10
134.895460
 20
782.335030
 30
0.0
 10
134.754003
 20
782.335030
 30
0.0
 10
134.639330
 20
782.449703
 30
0.0
 10
134.639330
 20
782.591160
 30
0.0
  0
SPLINE
  5
12e
100
AcDbEntity
  8
0
 62
7
100
AcDbSpline
 70
8
 71
3
 72
8
 73
4
 74
0
 40
0
 40
0
 40
0
 40
0
 40
1
 40
1
 40
1
 40
1
 10
134.639330
 20
782.591160
 30
0.0
 10
134.639330
 20
782.732617
 30
0.0
 10
134.754003
 20
782.847290
 30
0.0
 10
134.895460
 20
782.847290
 30
0.0
  0
LWPOLYLINE
  5
12f
100
AcDbEntity
  8
0
 62
7
100
AcDbPolyline
 90
46
 70
1
 10
142.151591
 20
762.591151
 30
0.0
 10
142.151591
 20
772.591151
 30
0.0
 10
145.151591
 20
772.591151
 30
0.0
 10
145.151591
 20
792.591151
 30
0.0
 10
142.151591
 20
792.591151
 30
0.0
 10
142.151591
 20
802.591151
 30
0.0
 10
142.151591
 20
805.591151
 30
0.0
 10
130.901591
 20
805.591151
 30
0.0
 10
130.901591
 20
802.591151
 30
0.0
 10
108.401591
 20
802.591151
 30
0.0
 10
108.401591
 20
805.591151
 30
0.0
 10
97.151591
 20
805.591151
 30
0.0
 10
85.901591
 20
805.591151
 30
0.0
 10
85.901591
 20
802.591151
 30
0.0
 10
63.401591
 20
802.591151
 30
0.0
 10
63.401591
 20
805.591151
 30
0.0
 10
52.151591
 20
805.591151
 30
0.0
 10
40.901591
 20
805.591151
 30
0.0
 10
40.901591
 20
802.591151
 30
0.0
 10
18.401591
 20
802.591151
 30
0.0
 10
18.401591
 20
805.591151
 30
0.0
 10
7.151591
 20
805.591151
 30
0.0
 10
4.151591
 20
805.591151
 30
0.0
 10
4.151591
 20
802.591151
 30
0.0
 10
4.151591
 20
792.591151
 30
0.0
 10
7.151591
 20
792.591151
 30
0.0
 10
7.151591
 20
772.591151
 30
0.0
 10
4.151591
 20
772.591151
 30
0.0
 10
4.151591
 20
762.591151
 30
0.0
 10
4.151591
 20
759.591151
 30
0.0
 10
7.151591
 20
759.591151
 30
0.0
 10
18.401591
 20
759.591151
 30
0.0
 10
18.401591
 20
762.591151
 30
0.0
 10
40.901591
 20
762.591151
 30
0.0
 10
40.901591
 20
759.591151
 30
0.0
 10
52.151591
 20
759.591151
 30
0.0
 10
63.401591
 20
759.591151
 30
0.0
 10
63.401591
 20
762.591151
 30
0.0
 10
85.901591
 20
762.591151
 30
0.0
 10
85.901591
 20
759.591151
 30
0.0
 10
97.151591
 20
759.591151
 30
0.0
 10
108.401591
 20
759.591151
 30
0.0
 10
108.401591
 20
762.591151
 30
0.0
 10
130.901591
 20
762.591151
 30
0.0
 10
130.901591
 20
759.591151
 30
0.0
 10
142.151591
 20
759.591151
 30
0.0
  0
LWPOLYLINE
  5
130
100
AcDbEntity
  8
0
 62
7
100
AcDbPolyline
 90
1
 70
1
 10
134.895460
 20
782.847290
 30
0.0
  0
LWPOLYLINE
  5
131
100
AcDbEntity
  8
0
 62
7
100
AcDbPolyline
 90
46
 70
1
 10
138.814580
 20
807.202080
 30
0.0
 10
148.981280
 20
807.202080
 30
0.0
 10
148.981280
 20
810.202080
 30
0.0
 10
169.314580
 20
810.202080
 30
0.0
 10
169.314580
 20
807.202080
 30
0.0
 10
179.481280
 20
807.202080
 30
0.0
 10
189.647880
 20
807.202080
 30
0.0
 10
189.647880
 20
810.202080
 30
0.0
 10
209.981280
 20
810.202080
 30
0.0
 10
209.981280
 20
807.202080
 30
0.0
 10
220.147880
 20
807.202080
 30
0.0
 10
230.314580
 20
807.202080
 30
0.0
 10
230.314580
 20
810.202080
 30
0.0
 10
250.647880
 20
810.202080
 30
0.0
 10
250.647880
 20
807.202080
 30
0.0
 10
260.814580
 20
807.202080
 30
0.0
 10
263.814580
 20
807.202080
 30
0.0
 10
263.814580
 20
810.202080
 30
0.0
 10
263.814580
 20
820.202080
 30
0.0
 10
260.814580
 20
820.202080
 30
0.0
 10
260.814580
 20
840.202080
 30
0.0
 10
263.814580
 20
840.202080
 30
0.0
 10
263.814580
 20
850.202080
 30
0.0
 10
263.814580
 20
853.202080
 30
0.0
 10
260.814580
 20
853.202080
 30
0.0
 10
250.647880
 20
853.202080
 30
0.0
 10
250.647880
 20
850.202080
 30
0.0
 10
230.314580
 20
850.202080
 30
0.0
 10
230.314580
 20
853.202080
 30
0.0
 10
220.147880
 20
853.202080
 30
0.0
 10
209.981280
 20
853.202080
 30
0.0
 10
209.981280
 20
850.202080
 30
0.0
 10
189.647880
 20
850.202080
 30
0.0
 10
189.647880
 20
853.202080
 30
0.0
 10
179.481280
 20
853.202080
 30
0.0
 10
169.314580
 20
853.202080
 30
0.0
 10
169.314580
 20
850.202080
 30
0.0
 10
148.981280
 20
850.202080
 30
0.0
 10
148.981280
 20
853.202080
 30
0.0
 10
138.814580
 20
853.202080
 30
0.0
 10
138.814580
 20
850.202080
 30
0.0
 10
138.814580
 20
840.202080
 30
0.0
 10
135.814580
 20
840.202080
 30
0.0
 10
135.814580
 20
820.202080
 30
0.0
 10
138.814580
 20
820.202080
 30
0.0
 10
138.814580
 20
810.202080
 30
0.0
  0
LWPOLYLINE
  5
132
100
AcDbEntity
  8
0
 62
5
100
AcDbPolyline
 90
2
 70
0
 10
145.501833
 20
845.932470
 30
0.0
 10
145.501833
 20
839.364998
 30
0.0
  0
LWPOLYLINE
  5
133
100
AcDbEntity
  8
0
 62
5
100
AcDbPolyline
 90
2
 70
0
 10
149.880148
 20
845.932470
 30
0.0
 10
149.880148
 20
839.364998
 30
0.0
  0
LWPOLYLINE
  5
134
100
AcDbEntity
  8
0
 62
5
100
AcDbPolyline
 90
2
 70
0
 10
145.501833
 20
842.805103
 30
0.0
 10
149.880148
 20
842.805103
 30
0.0
  0
LWPOLYLINE
  5
135
100
AcDbEntity
  8
0
 62
5
100
AcDbPolyline
 90
7
 70
0
 10
152.382042
 20
843.743313
 30
0.0
 10
152.382042
 20
840.615945
 30
0.0
 10
152.694779
 20
839.677735
 30
0.0
 10
153.320253
 20
839.364998
 30
0.0
 10
154.258463
 20
839.364998
 30
0.0
 10
154.883937
 20
839.677735
 30
0.0
 10
155.822147
 20
840.615945
 30
0.0
  0
LWPOLYLINE
  5
136
100
AcDbEntity
  8
0
 62
5
100
AcDbPolyline
 90
2
 70
0
 10
155.822147
 20
843.743313
 30
0.0
 10
155.822147
 20
839.364998
 30
0.0
  0
LWPOLYLINE
  5
137
100
AcDbEntity
  8
0
 62
5
100
AcDbPolyline
 90
2
 70
0
 10
158.324041
 20
843.743313
 30
0.0
 10
158.324041
 20
839.364998
 30
0.0
  0
LWPOLYLINE
  5
138
100
AcDbEntity
  8
0
 62
5
100
AcDbPolyline
 90
7
 70
0
 10
158.324041
 20
842.492366
 30
0.0
 10
159.262251
 20
843.430576
 30
0.0
 10
159.887725
 20
843.743313
 30
0.0
 10
160.825935
 20
843.743313
 30
0.0
 10
161.451409
 20
843.430576
 30
0.0
 10
161.764146
 20
842.492366
 30
0.0
 10
161.764146
 20
839.364998
 30
0.0
  0
LWPOLYLINE
  5
139
100
AcDbEntity
  8
0
 62
5
100
AcDbPolyline
 90
7
 70
0
 10
161.764146
 20
842.492366
 30
0.0
 10
162.702356
 20
843.430576
 30
0.0
 10
163.327830
 20
843.743313
 30
0.0
 10
164.266040
 20
843.743313
 30
0.0
 10
164.891513
 20
843.430576
 30
0.0
 10
165.204250
 20
842.492366
 30
0.0
 10
165.204250
 20
839.364998
 30
0.0
  0
LWPOLYLINE
  5
13a
100
AcDbEntity
  8
0
 62
5
100
AcDbPolyline
 90
16
 70
1
 10
168.957092
 20
843.743313
 30
0.0
 10
168.331618
 20
843.430576
 30
0.0
 10
167.706145
 20
842.805103
 30
0.0
 10
167.393408
 20
841.866892
 30
0.0
 10
167.393408
 20
841.241419
 30
0.0
 10
167.706145
 20
840.303208
 30
0.0
 10
168.331618
 20
839.677735
 30
0.0
 10
168.957092
 20
839.364998
 30
0.0
 10
169.895302
 20
839.364998
 30
0.0
 10
170.520776
 20
839.677735
 30
0.0
 10
171.146249
 20
840.303208
 30
0.0
 10
171.458986
 20
841.241419
 30
0.0
 10
171.458986
 20
841.866892
 30
0.0
 10
171.146249
 20
842.805103
 30
0.0
 10
170.520776
 20
843.430576
 30
0.0
 10
169.895302
 20
843.743313
 30
0.0
  0
LWPOLYLINE
  5
13b
100
AcDbEntity
  8
0
 62
5
100
AcDbPolyline
 90
2
 70
0
 10
159.340261
 20
835.625993
 30
0.0
 10
160.552200
 20
832.798137
 30
0.0
  0
LWPOLYLINE
  5
13c
100
AcDbEntity
  8
0
 62
5
100
AcDbPolyline
 90
2
 70
0
 10
161.764138
 20
835.625993
 30
0.0
 10
160.552200
 20
832.798137
 30
0.0
  0
LWPOLYLINE
  5
13d
100
AcDbEntity
  8
0
 62
5
100
AcDbPolyline
 90
4
 70
0
 10
163.380056
 20
836.231962
 30
0.0
 10
163.784035
 20
836.433951
 30
0.0
 10
164.390004
 20
837.039921
 30
0.0
 10
164.390004
 20
832.798137
 30
0.0
  0
LWPOLYLINE
  5
13e
100
AcDbEntity
  8
0
 62
5
100
AcDbPolyline
 90
4
 70
1
 10
167.015871
 20
833.808085
 30
0.0
 10
166.813881
 20
833.606095
 30
0.0
 10
167.015871
 20
833.404106
 30
0.0
 10
167.217861
 20
833.606095
 30
0.0
  0
LWPOLYLINE
  5
13f
100
AcDbEntity
  8
0
 62
5
100
AcDbPolyline
 90
16
 70
1
 10
169.641737
 20
837.039921
 30
0.0
 10
169.035768
 20
836.837931
 30
0.0
 10
168.631789
 20
836.231962
 30
0.0
 10
168.429799
 20
835.222013
 30
0.0
 10
168.429799
 20
834.616044
 30
0.0
 10
168.631789
 20
833.606095
 30
0.0
 10
169.035768
 20
833.000126
 30
0.0
 10
169.641737
 20
832.798137
 30
0.0
 10
170.045717
 20
832.798137
 30
0.0
 10
170.651686
 20
833.000126
 30
0.0
 10
171.055665
 20
833.606095
 30
0.0
 10
171.257655
 20
834.616044
 30
0.0
 10
171.257655
 20
835.222013
 30
0.0
 10
171.055665
 20
836.231962
 30
0.0
 10
170.651686
 20
836.837931
 30
0.0
 10
170.045717
 20
837.039921
 30
0.0
  0
LWPOLYLINE
  5
140
100
AcDbEntity
  8
0
 62
5
100
AcDbPolyline
 90
18
 70
0
 10
228.314685
 20
820.046139
 30
0.0
 10
228.182563
 20
820.310384
 30
0.0
 10
227.918317
 20
820.574629
 30
0.0
 10
227.654072
 20
820.706752
 30
0.0
 10
227.125581
 20
820.706752
 30
0.0
 10
226.861336
 20
820.574629
 30
0.0
 10
226.597090
 20
820.310384
 30
0.0
 10
226.464968
 20
820.046139
 30
0.0
 10
226.332845
 20
819.649771
 30
0.0
 10
226.332845
 20
818.989157
 30
0.0
 10
226.464968
 20
818.592789
 30
0.0
 10
226.597090
 20
818.328544
 30
0.0
 10
226.861336
 20
818.064299
 30
0.0
 10
227.125581
 20
817.932176
 30
0.0
 10
227.654072
 20
817.932176
 30
0.0
 10
227.918317
 20
818.064299
 30
0.0
 10
228.182563
 20
818.328544
 30
0.0
 10
228.314685
 20
818.592789
 30
0.0
  0
LWPOLYLINE
  5
141
100
AcDbEntity
  8
0
 62
5
100
AcDbPolyline
 90
18
 70
0
 10
231.089262
 20
820.046139
 30
0.0
 10
230.957139
 20
820.310384
 30
0.0
 10
230.692893
 20
820.574629
 30
0.0
 10
230.428648
 20
820.706752
 30
0.0
 10
229.900157
 20
820.706752
 30
0.0
 10
229.635912
 20
820.574629
 30
0.0
 10
229.371667
 20
820.310384
 30
0.0
 10
229.239544
 20
820.046139
 30
0.0
 10
229.107421
 20
819.649771
 30
0.0
 10
229.107421
 20
818.989157
 30
0.0
 10
229.239544
 20
818.592789
 30
0.0
 10
229.371667
 20
818.328544
 30
0.0
 10
229.635912
 20
818.064299
 30
0.0
 10
229.900157
 20
817.932176
 30
0.0
 10
230.428648
 20
817.932176
 30
0.0
 10
230.692893
 20
818.064299
 30
0.0
 10
230.957139
 20
818.328544
 30
0.0
 10
231.089262
 20
818.592789
 30
0.0
  0
LWPOLYLINE
  5
142
100
AcDbEntity
  8
0
 62
5
100
AcDbPolyline
 90
2
 70
0
 10
232.014120
 20
819.121280
 30
0.0
 10
234.392329
 20
819.121280
 30
0.0
  0
LWPOLYLINE
  5
143
100
AcDbEntity
  8
0
 62
5
100
AcDbPolyline
 90
2
 70
0
 10
235.449310
 20
820.706752
 30
0.0
 10
235.449310
 20
817.932176
 30
0.0
  0
LWPOLYLINE
  5
144
100
AcDbEntity
  8
0
 62
5
100
AcDbPolyline
 90
9
 70
0
 10
235.449310
 20
820.706752
 30
0.0
 10
236.638414
 20
820.706752
 30
0.0
 10
237.034782
 20
820.574629
 30
0.0
 10
237.166905
 20
820.442507
 30
0.0
 10
237.299027
 20
820.178261
 30
0.0
 10
237.299027
 20
819.914016
 30
0.0
 10
237.166905
 20
819.649771
 30
0.0
 10
237.034782
 20
819.517648
 30
0.0
 10
236.638414
 20
819.385525
 30
0.0
  0
LWPOLYLINE
  5
145
100
AcDbEntity
  8
0
 62
5
100
AcDbPolyline
 90
10
 70
0
 10
235.449310
 20
819.385525
 30
0.0
 10
236.638414
 20
819.385525
 30
0.0
 10
237.034782
 20
819.253403
 30
0.0
 10
237.166905
 20
819.121280
 30
0.0
 10
237.299027
 20
818.857035
 30
0.0
 10
237.299027
 20
818.460667
 30
0.0
 10
237.166905
 20
818.196421
 30
0.0
 10
237.034782
 20
818.064299
 30
0.0
 10
236.638414
 20
817.932176
 30
0.0
 10
235.449310
 20
817.932176
 30
0.0
  0
LWPOLYLINE
  5
146
100
AcDbEntity
  8
0
 62
5
100
AcDbPolyline
 90
3
 70
0
 10
237.827518
 20
820.706752
 30
0.0
 10
238.884500
 20
819.385525
 30
0.0
 10
238.884500
 20
817.932176
 30
0.0
  0
LWPOLYLINE
  5
147
100
AcDbEntity
  8
0
 62
5
100
AcDbPolyline
 90
2
 70
0
 10
239.941481
 20
820.706752
 30
0.0
 10
238.884500
 20
819.385525
 30
0.0
  0
LWPOLYLINE
  5
148
100
AcDbEntity
  8
0
 62
5
100
AcDbPolyline
 90
2
 70
0
 10
240.602094
 20
819.121280
 30
0.0
 10
242.980303
 20
819.121280
 30
0.0
  0
LWPOLYLINE
  5
149
100
AcDbEntity
  8
0
 62
5
100
AcDbPolyline
 90
20
 70
0
 10
245.754879
 20
820.310384
 30
0.0
 10
245.490634
 20
820.574629
 30
0.0
 10
245.094266
 20
820.706752
 30
0.0
 10
244.565775
 20
820.706752
 30
0.0
 10
244.169407
 20
820.574629
 30
0.0
 10
243.905161
 20
820.310384
 30
0.0
 10
243.905161
 20
820.046139
 30
0.0
 10
244.037284
 20
819.781893
 30
0.0
 10
244.169407
 20
819.649771
 30
0.0
 10
244.433652
 20
819.517648
 30
0.0
 10
245.226388
 20
819.253403
 30
0.0
 10
245.490634
 20
819.121280
 30
0.0
 10
245.622756
 20
818.989157
 30
0.0
 10
245.754879
 20
818.724912
 30
0.0
 10
245.754879
 20
818.328544
 30
0.0
 10
245.490634
 20
818.064299
 30
0.0
 10
245.094266
 20
817.932176
 30
0.0
 10
244.565775
 20
817.932176
 30
0.0
 10
244.169407
 20
818.064299
 30
0.0
 10
243.905161
 20
818.328544
 30
0.0
  0
LWPOLYLINE
  5
14a
100
AcDbEntity
  8
0
 62
5
100
AcDbPolyline
 90
2
 70
0
 10
247.340351
 20
820.706752
 30
0.0
 10
246.283370
 20
817.932176
 30
0.0
  0
LWPOLYLINE
  5
14b
100
AcDbEntity
  8
0
 62
5
100
AcDbPolyline
 90
2
 70
0
 10
247.340351
 20
820.706752
 30
0.0
 10
248.397333
 20
817.932176
 30
0.0
  0
LWPOLYLINE
  5
14c
100
AcDbEntity
  8
0
 62
5
100
AcDbPolyline
 90
2
 70
0
 10
246.679738
 20
818.857035
 30
0.0
 10
248.000965
 20
818.857035
 30
0.0
  0
LWPOLYLINE
  5
14d
100
AcDbEntity
  8
0
 62
5
100
AcDbPolyline
 90
3
 70
0
 10
252.361013
 20
820.706752
 30
0.0
 10
251.039786
 20
818.857035
 30
0.0
 10
253.021626
 20
818.857035
 30
0.0
  0
LWPOLYLINE
  5
14e
100
AcDbEntity
  8
0
 62
5
100
AcDbPolyline
 90
2
 70
0
 10
252.361013
 20
820.706752
 30
0.0
 10
252.361013
 20
817.932176
 30
0.0
  0
LWPOLYLINE
  5
14f
100
AcDbEntity
  8
0
 62
5
100
AcDbPolyline
 90
4
 70
1
 10
253.814362
 20
818.592789
 30
0.0
 10
253.682240
 20
818.460667
 30
0.0
 10
253.814362
 20
818.328544
 30
0.0
 10
253.946485
 20
818.460667
 30
0.0
  0
LWPOLYLINE
  5
150
100
AcDbEntity
  8
0
 62
5
100
AcDbPolyline
 90
16
 70
1
 10
255.531957
 20
820.706752
 30
0.0
 10
255.135589
 20
820.574629
 30
0.0
 10
254.871344
 20
820.178261
 30
0.0
 10
254.739221
 20
819.517648
 30
0.0
 10
254.739221
 20
819.121280
 30
0.0
 10
254.871344
 20
818.460667
 30
0.0
 10
255.135589
 20
818.064299
 30
0.0
 10
255.531957
 20
817.932176
 30
0.0
 10
255.796203
 20
817.932176
 30
0.0
 10
256.192571
 20
818.064299
 30
0.0
 10
256.456816
 20
818.460667
 30
0.0
 10
256.588939
 20
819.121280
 30
0.0
 10
256.588939
 20
819.517648
 30
0.0
 10
256.456816
 20
820.178261
 30
0.0
 10
256.192571
 20
820.574629
 30
0.0
 10
255.796203
 20
820.706752
 30
0.0
  0
LWPOLYLINE
  5
151
100
AcDbEntity
  8
0
 62
5
100
AcDbPolyline
 90
2
 70
0
 10
227.096358
 20
816.772111
 30
0.0
 10
227.096358
 20
813.983937
 30
0.0
  0
LWPOLYLINE
  5
152
100
AcDbEntity
  8
0
 62
5
100
AcDbPolyline
 90
2
 70
0
 10
226.166967
 20
816.772111
 30
0.0
 10
228.025750
 20
816.772111
 30
0.0
  0
LWPOLYLINE
  5
153
100
AcDbEntity
  8
0
 62
5
100
AcDbPolyline
 90
4
 70
1
 10
228.556830
 20
816.772111
 30
0.0
 10
228.689600
 20
816.639341
 30
0.0
 10
228.822371
 20
816.772111
 30
0.0
 10
228.689600
 20
816.904881
 30
0.0
  0
LWPOLYLINE
  5
154
100
AcDbEntity
  8
0
 62
5
100
AcDbPolyline
 90
2
 70
0
 10
228.689600
 20
815.842720
 30
0.0
 10
228.689600
 20
813.983937
 30
0.0
  0
LWPOLYLINE
  5
155
100
AcDbEntity
  8
0
 62
5
100
AcDbPolyline
 90
2
 70
0
 10
229.751762
 20
815.842720
 30
0.0
 10
229.751762
 20
813.983937
 30
0.0
  0
LWPOLYLINE
  5
156
100
AcDbEntity
  8
0
 62
5
100
AcDbPolyline
 90
7
 70
0
 10
229.751762
 20
815.311639
 30
0.0
 10
230.150072
 20
815.709950
 30
0.0
 10
230.415613
 20
815.842720
 30
0.0
 10
230.813923
 20
815.842720
 30
0.0
 10
231.079463
 20
815.709950
 30
0.0
 10
231.212234
 20
815.311639
 30
0.0
 10
231.212234
 20
813.983937
 30
0.0
  0
LWPOLYLINE
  5
157
100
AcDbEntity
  8
0
 62
5
100
AcDbPolyline
 90
7
 70
0
 10
231.212234
 20
815.311639
 30
0.0
 10
231.610544
 20
815.709950
 30
0.0
 10
231.876084
 20
815.842720
 30
0.0
 10
232.274395
 20
815.842720
 30
0.0
 10
232.539935
 20
815.709950
 30
0.0
 10
232.672706
 20
815.311639
 30
0.0
 10
232.672706
 20
813.983937
 30
0.0
  0
LWPOLYLINE
  5
158
100
AcDbEntity
  8
0
 62
5
100
AcDbPolyline
 90
16
 70
1
 10
234.265948
 20
815.842720
 30
0.0
 10
234.000407
 20
815.709950
 30
0.0
 10
233.734867
 20
815.444409
 30
0.0
 10
233.602097
 20
815.046099
 30
0.0
 10
233.602097
 20
814.780559
 30
0.0
 10
233.734867
 20
814.382248
 30
0.0
 10
234.000407
 20
814.116708
 30
0.0
 10
234.265948
 20
813.983937
 30
0.0
 10
234.664258
 20
813.983937
 30
0.0
 10
234.929798
 20
814.116708
 30
0.0
 10
235.195339
 20
814.382248
 30
0.0
 10
235.328109
 20
814.780559
 30
0.0
 10
235.328109
 20
815.046099
 30
0.0
 10
235.195339
 20
815.444409
 30
0.0
 10
234.929798
 20
815.709950
 30
0.0
 10
234.664258
 20
815.842720
 30
0.0
  0
LWPOLYLINE
  5
159
100
AcDbEntity
  8
0
 62
5
100
AcDbPolyline
 90
20
 70
0
 10
240.107835
 20
816.373801
 30
0.0
 10
239.842295
 20
816.639341
 30
0.0
 10
239.443984
 20
816.772111
 30
0.0
 10
238.912903
 20
816.772111
 30
0.0
 10
238.514593
 20
816.639341
 30
0.0
 10
238.249053
 20
816.373801
 30
0.0
 10
238.249053
 20
816.108260
 30
0.0
 10
238.381823
 20
815.842720
 30
0.0
 10
238.514593
 20
815.709950
 30
0.0
 10
238.780133
 20
815.577180
 30
0.0
 10
239.576754
 20
815.311639
 30
0.0
 10
239.842295
 20
815.178869
 30
0.0
 10
239.975065
 20
815.046099
 30
0.0
 10
240.107835
 20
814.780559
 30
0.0
 10
240.107835
 20
814.382248
 30
0.0
 10
239.842295
 20
814.116708
 30
0.0
 10
239.443984
 20
813.983937
 30
0.0
 10
238.912903
 20
813.983937
 30
0.0
 10
238.514593
 20
814.116708
 30
0.0
 10
238.249053
 20
814.382248
 30
0.0
  0
LWPOLYLINE
  5
15a
100
AcDbEntity
  8
0
 62
5
100
AcDbPolyline
 90
14
 70
0
 10
242.497698
 20
815.444409
 30
0.0
 10
242.232158
 20
815.709950
 30
0.0
 10
241.966617
 20
815.842720
 30
0.0
 10
241.568307
 20
815.842720
 30
0.0
 10
241.302767
 20
815.709950
 30
0.0
 10
241.037226
 20
815.444409
 30
0.0
 10
240.904456
 20
815.046099
 30
0.0
 10
240.904456
 20
814.780559
 30
0.0
 10
241.037226
 20
814.382248
 30
0.0
 10
241.302767
 20
814.116708
 30
0.0
 10
241.568307
 20
813.983937
 30
0.0
 10
241.966617
 20
813.983937
 30
0.0
 10
242.232158
 20
814.116708
 30
0.0
 10
242.497698
 20
814.382248
 30
0.0
  0
LWPOLYLINE
  5
15b
100
AcDbEntity
  8
0
 62
5
100
AcDbPolyline
 90
2
 70
0
 10
243.427089
 20
816.772111
 30
0.0
 10
243.427089
 20
813.983937
 30
0.0
  0
LWPOLYLINE
  5
15c
100
AcDbEntity
  8
0
 62
5
100
AcDbPolyline
 90
7
 70
0
 10
243.427089
 20
815.311639
 30
0.0
 10
243.825400
 20
815.709950
 30
0.0
 10
244.090940
 20
815.842720
 30
0.0
 10
244.489251
 20
815.842720
 30
0.0
 10
244.754791
 20
815.709950
 30
0.0
 10
244.887561
 20
815.311639
 30
0.0
 10
244.887561
 20
813.983937
 30
0.0
  0
LWPOLYLINE
  5
15d
100
AcDbEntity
  8
0
 62
5
100
AcDbPolyline
 90
4
 70
1
 10
245.816952
 20
816.772111
 30
0.0
 10
245.949723
 20
816.639341
 30
0.0
 10
246.082493
 20
816.772111
 30
0.0
 10
245.949723
 20
816.904881
 30
0.0
  0
LWPOLYLINE
  5
15e
100
AcDbEntity
  8
0
 62
5
100
AcDbPolyline
 90
2
 70
0
 10
245.949723
 20
815.842720
 30
0.0
 10
245.949723
 20
813.983937
 30
0.0
  0
LWPOLYLINE
  5
15f
100
AcDbEntity
  8
0
 62
5
100
AcDbPolyline
 90
2
 70
0
 10
247.011884
 20
815.842720
 30
0.0
 10
247.011884
 20
813.983937
 30
0.0
  0
LWPOLYLINE
  5
160
100
AcDbEntity
  8
0
 62
5
100
AcDbPolyline
 90
7
 70
0
 10
247.011884
 20
815.311639
 30
0.0
 10
247.410194
 20
815.709950
 30
0.0
 10
247.675735
 20
815.842720
 30
0.0
 10
248.074045
 20
815.842720
 30
0.0
 10
248.339586
 20
815.709950
 30
0.0
 10
248.472356
 20
815.311639
 30
0.0
 10
248.472356
 20
813.983937
 30
0.0
  0
LWPOLYLINE
  5
161
100
AcDbEntity
  8
0
 62
5
100
AcDbPolyline
 90
2
 70
0
 10
250.994989
 20
816.772111
 30
0.0
 10
250.994989
 20
813.983937
 30
0.0
  0
LWPOLYLINE
  5
162
100
AcDbEntity
  8
0
 62
5
100
AcDbPolyline
 90
14
 70
0
 10
250.994989
 20
815.444409
 30
0.0
 10
250.729449
 20
815.709950
 30
0.0
 10
250.463908
 20
815.842720
 30
0.0
 10
250.065598
 20
815.842720
 30
0.0
 10
249.800057
 20
815.709950
 30
0.0
 10
249.534517
 20
815.444409
 30
0.0
 10
249.401747
 20
815.046099
 30
0.0
 10
249.401747
 20
814.780559
 30
0.0
 10
249.534517
 20
814.382248
 30
0.0
 10
249.800057
 20
814.116708
 30
0.0
 10
250.065598
 20
813.983937
 30
0.0
 10
250.463908
 20
813.983937
 30
0.0
 10
250.729449
 20
814.116708
 30
0.0
 10
250.994989
 20
814.382248
 30
0.0
  0
LWPOLYLINE
  5
163
100
AcDbEntity
  8
0
 62
5
100
AcDbPolyline
 90
2
 70
0
 10
252.057150
 20
816.772111
 30
0.0
 10
252.057150
 20
813.983937
 30
0.0
  0
LWPOLYLINE
  5
164
100
AcDbEntity
  8
0
 62
5
100
AcDbPolyline
 90
17
 70
0
 10
252.986542
 20
815.046099
 30
0.0
 10
254.579784
 20
815.046099
 30
0.0
 10
254.579784
 20
815.311639
 30
0.0
 10
254.447013
 20
815.577180
 30
0.0
 10
254.314243
 20
815.709950
 30
0.0
 10
254.048703
 20
815.842720
 30
0.0
 10
253.650392
 20
815.842720
 30
0.0
 10
253.384852
 20
815.709950
 30
0.0
 10
253.119312
 20
815.444409
 30
0.0
 10
252.986542
 20
815.046099
 30
0.0
 10
252.986542
 20
814.780559
 30
0.0
 10
253.119312
 20
814.382248
 30
0.0
 10
253.384852
 20
814.116708
 30
0.0
 10
253.650392
 20
813.983937
 30
0.0
 10
254.048703
 20
813.983937
 30
0.0
 10
254.314243
 20
814.116708
 30
0.0
 10
254.579784
 20
814.382248
 30
0.0
  0
LWPOLYLINE
  5
165
100
AcDbEntity
  8
0
 62
5
100
AcDbPolyline
 90
2
 70
0
 10
255.509175
 20
815.842720
 30
0.0
 10
255.509175
 20
813.983937
 30
0.0
  0
LWPOLYLINE
  5
166
100
AcDbEntity
  8
0
 62
5
100
AcDbPolyline
 90
5
 70
0
 10
255.509175
 20
815.046099
 30
0.0
 10
255.641945
 20
815.444409
 30
0.0
 10
255.907485
 20
815.709950
 30
0.0
 10
256.173026
 20
815.842720
 30
0.0
 10
256.571336
 20
815.842720
 30
0.0
  0
SPLINE
  5
167
100
AcDbEntity
  8
0
 62
7
100
AcDbSpline
 70
8
 71
3
 72
8
 73
4
 74
0
 40
0
 40
0
 40
0
 40
0
 40
1
 40
1
 40
1
 40
1
 10
383.333317
 20
996.526653
 30
0.0
 10
384.995317
 20
996.526653
 30
0.0
 10
386.333317
 20
995.188653
 30
0.0
 10
386.333317
 20
993.526653
 30
0.0
  0
LWPOLYLINE
  5
168
100
AcDbEntity
  8
0
 62
7
100
AcDbPolyline
 90
2
 70
0
 10
270.333317
 20
996.526653
 30
0.0
 10
383.333317
 20
996.526653
 30
0.0
  0
SPLINE
  5
169
100
AcDbEntity
  8
0
 62
7
100
AcDbSpline
 70
8
 71
3
 72
8
 73
4
 74
0
 40
0
 40
0
 40
0
 40
0
 40
1
 40
1
 40
1
 40
1
 10
386.333317
 20
880.526653
 30
0.0
 10
386.333317
 20
878.864653
 30
0.0
 10
384.995317
 20
877.526653
 30
0.0
 10
383.333317
 20
877.526653
 30
0.0
  0
LWPOLYLINE
  5
16a
100
AcDbEntity
  8
0
 62
7
100
AcDbPolyline
 90
2
 70
0
 10
386.333317
 20
993.526653
 30
0.0
 10
386.333317
 20
880.526653
 30
0.0
  0
SPLINE
  5
16b
100
AcDbEntity
  8
0
 62
7
100
AcDbSpline
 70
8
 71
3
 72
8
 73
4
 74
0
 40
0
 40
0
 40
0
 40
0
 40
1
 40
1
 40
1
 40
1
 10
270.333317
 20
877.526653
 30
0.0
 10
268.671317
 20
877.526653
 30
0.0
 10
267.333317
 20
878.864653
 30
0.0
 10
267.333317
 20
880.526653
 30
0.0
  0
LWPOLYLINE
  5
16c
100
AcDbEntity
  8
0
 62
7
100
AcDbPolyline
 90
2
 70
0
 10
383.333317
 20
877.526653
 30
0.0
 10
270.333317
 20
877.526653
 30
0.0
  0
SPLINE
  5
16d
100
AcDbEntity
  8
0
 62
7
100
AcDbSpline
 70
8
 71
3
 72
8
 73
4
 74
0
 40
0
 40
0
 40
0
 40
0
 40
1
 40
1
 40
1
 40
1
 10
267.333317
 20
993.526653
 30
0.0
 10
267.333317
 20
995.188653
 30
0.0
 10
268.671317
 20
996.526653
 30
0.0
 10
270.333317
 20
996.526653
 30
0.0
  0
LWPOLYLINE
  5
16e
100
AcDbEntity
  8
0
 62
7
100
AcDbPolyline
 90
2
 70
0
 10
267.333317
 20
880.526653
 30
0.0
 10
267.333317
 20
993.526653
 30
0.0
  0
LWPOLYLINE
  5
16f
100
AcDbEntity
  8
0
 62
7
100
AcDbPolyline
 90
1
 70
1
 10
270.333317
 20
996.526653
 30
0.0
  0
SPLINE
  5
170
100
AcDbEntity
  8
0
 62
7
100
AcDbSpline
 70
8
 71
3
 72
8
 73
4
 74
0
 40
0
 40
0
 40
0
 40
0
 40
1
 40
1
 40
1
 40
1
 10
321.231257
 20
991.226603
 30
0.0
 10
322.945687
 20
991.226603
 30
0.0
 10
324.325907
 20
989.864713
 30
0.0
 10
324.325907
 20
988.173043
 30
0.0
  0
LWPOLYLINE
  5
171
100
AcDbEntity
  8
0
 62
7
100
AcDbPolyline
 90
2
 70
0
 10
275.727997
 20
991.226603
 30
0.0
 10
321.231257
 20
991.226603
 30
0.0
  0
SPLINE
  5
172
100
AcDbEntity
  8
0
 62
7
100
AcDbSpline
 70
8
 71
3
 72
8
 73
4
 74
0
 40
0
 40
0
 40
0
 40
0
 40
1
 40
1
 40
1
 40
1
 10
324.325907
 20
942.587613
 30
0.0
 10
324.325907
 20
940.895933
 30
0.0
 10
322.945687
 20
939.534043
 30
0.0
 10
321.231257
 20
939.534043
 30
0.0
  0
LWPOLYLINE
  5
173
100
AcDbEntity
  8
0
 62
7
100
AcDbPolyline
 90
2
 70
0
 10
324.325907
 20
988.173043
 30
0.0
 10
324.325907
 20
942.587613
 30
0.0
  0
SPLINE
  5
174
100
AcDbEntity
  8
0
 62
7
100
AcDbSpline
 70
8
 71
3
 72
8
 73
4
 74
0
 40
0
 40
0
 40
0
 40
0
 40
1
 40
1
 40
1
 40
1
 10
275.727997
 20
939.534043
 30
0.0
 10
274.013557
 20
939.534043
 30
0.0
 10
272.633347
 20
940.895933
 30
0.0
 10
272.633347
 20
942.587613
 30
0.0
  0
LWPOLYLINE
  5
175
100
AcDbEntity
  8
0
 62
7
100
AcDbPolyline
 90
2
 70
0
 10
321.231257
 20
939.534043
 30
0.0
 10
275.727997
 20
939.534043
 30
0.0
  0
SPLINE
  5
176
100
AcDbEntity
  8
0
 62
7
100
AcDbSpline
 70
8
 71
3
 72
8
 73
4
 74
0
 40
0
 40
0
 40
0
 40
0
 40
1
 40
1
 40
1
 40
1
 10
272.633347
 20
988.173043
 30
0.0
 10
272.633347
 20
989.864713
 30
0.0
 10
274.013557
 20
991.226603
 30
0.0
 10
275.727997
 20
991.226603
 30
0.0
  0
LWPOLYLINE
  5
177
100
AcDbEntity
  8
0
 62
7
100
AcDbPolyline
 90
2
 70
0
 10
272.633347
 20
942.587613
 30
0.0
 10
272.633347
 20
988.173043
 30
0.0
  0
LWPOLYLINE
  5
178
100
AcDbEntity
  8
0
 62
7
100
AcDbPolyline
 90
1
 70
1
 10
275.727997
 20
991.226603
 30
0.0
  0
SPLINE
  5
179
100
AcDbEntity
  8
0
 62
7
100
AcDbSpline
 70
8
 71
3
 72
8
 73
4
 74
0
 40
0
 40
0
 40
0
 40
0
 40
1
 40
1
 40
1
 40
1
 10
378.523847
 20
991.226603
 30
0.0
 10
380.238287
 20
991.226603
 30
0.0
 10
381.618497
 20
989.864713
 30
0.0
 10
381.618497
 20
988.173043
 30
0.0
  0
LWPOLYLINE
  5
17a
100
AcDbEntity
  8
0
 62
7
100
AcDbPolyline
 90
2
 70
0
 10
333.020577
 20
991.226603
 30
0.0
 10
378.523847
 20
991.226603
 30
0.0
  0
SPLINE
  5
17b
100
AcDbEntity
  8
0
 62
7
100
AcDbSpline
 70
8
 71
3
 72
8
 73
4
 74
0
 40
0
 40
0
 40
0
 40
0
 40
1
 40
1
 40
1
 40
1
 10
381.618497
 20
942.587613
 30
0.0
 10
381.618497
 20
940.895933
 30
0.0
 10
380.238287
 20
939.534043
 30
0.0
 10
378.523847
 20
939.534043
 30
0.0
  0
LWPOLYLINE
  5
17c
100
AcDbEntity
  8
0
 62
7
100
AcDbPolyline
 90
2
 70
0
 10
381.618497
 20
988.173043
 30
0.0
 10
381.618497
 20
942.587613
 30
0.0
  0
SPLINE
  5
17d
100
AcDbEntity
  8
0
 62
7
100
AcDbSpline
 70
8
 71
3
 72
8
 73
4
 74
0
 40
0
 40
0
 40
0
 40
0
 40
1
 40
1
 40
1
 40
1
 10
333.020577
 20
939.534043
 30
0.0
 10
331.306147
 20
939.534043
 30
0.0
 10
329.925937
 20
940.895933
 30
0.0
 10
329.925937
 20
942.587613
 30
0.0
  0
LWPOLYLINE
  5
17e
100
AcDbEntity
  8
0
 62
7
100
AcDbPolyline
 90
2
 70
0
 10
378.523847
 20
939.534043
 30
0.0
 10
333.020577
 20
939.534043
 30
0.0
  0
SPLINE
  5
17f
100
AcDbEntity
  8
0
 62
7
100
AcDbSpline
 70
8
 71
3
 72
8
 73
4
 74
0
 40
0
 40
0
 40
0
 40
0
 40
1
 40
1
 40
1
 40
1
 10
329.925937
 20
988.173043
 30
0.0
 10
329.925937
 20
989.864713
 30
0.0
 10
331.306147
 20
991.226603
 30
0.0
 10
333.020577
 20
991.226603
 30
0.0
  0
LWPOLYLINE
  5
180
100
AcDbEntity
  8
0
 62
7
100
AcDbPolyline
 90
2
 70
0
 10
329.925937
 20
942.587613
 30
0.0
 10
329.925937
 20
988.173043
 30
0.0
  0
LWPOLYLINE
  5
181
100
AcDbEntity
  8
0
 62
7
100
AcDbPolyline
 90
1
 70
1
 10
333.020577
 20
991.226603
 30
0.0
  0
SPLINE
  5
182
100
AcDbEntity
  8
0
 62
7
100
AcDbSpline
 70
8
 71
3
 72
8
 73
4
 74
0
 40
0
 40
0
 40
0
 40
0
 40
1
 40
1
 40
1
 40
1
 10
321.231257
 20
933.934003
 30
0.0
 10
322.945697
 20
933.934003
 30
0.0
 10
324.325907
 20
932.572113
 30
0.0
 10
324.325907
 20
930.880433
 30
0.0
  0
LWPOLYLINE
  5
183
100
AcDbEntity
  8
0
 62
7
100
AcDbPolyline
 90
2
 70
0
 10
275.727997
 20
933.934003
 30
0.0
 10
321.231257
 20
933.934003
 30
0.0
  0
SPLINE
  5
184
100
AcDbEntity
  8
0
 62
7
100
AcDbSpline
 70
8
 71
3
 72
8
 73
4
 74
0
 40
0
 40
0
 40
0
 40
0
 40
1
 40
1
 40
1
 40
1
 10
324.325907
 20
885.295013
 30
0.0
 10
324.325907
 20
883.603333
 30
0.0
 10
322.945697
 20
882.241443
 30
0.0
 10
321.231257
 20
882.241443
 30
0.0
  0
LWPOLYLINE
  5
185
100
AcDbEntity
  8
0
 62
7
100
AcDbPolyline
 90
2
 70
0
 10
324.325907
 20
930.880433
 30
0.0
 10
324.325907
 20
885.295013
 30
0.0
  0
SPLINE
  5
186
100
AcDbEntity
  8
0
 62
7
100
AcDbSpline
 70
8
 71
3
 72
8
 73
4
 74
0
 40
0
 40
0
 40
0
 40
0
 40
1
 40
1
 40
1
 40
1
 10
275.727997
 20
882.241443
 30
0.0
 10
274.013557
 20
882.241443
 30
0.0
 10
272.633347
 20
883.603333
 30
0.0
 10
272.633347
 20
885.295013
 30
0.0
  0
LWPOLYLINE
  5
187
100
AcDbEntity
  8
0
 62
7
100
AcDbPolyline
 90
2
 70
0
 10
321.231257
 20
882.241443
 30
0.0
 10
275.727997
 20
882.241443
 30
0.0
  0
SPLINE
  5
188
100
AcDbEntity
  8
0
 62
7
100
AcDbSpline
 70
8
 71
3
 72
8
 73
4
 74
0
 40
0
 40
0
 40
0
 40
0
 40
1
 40
1
 40
1
 40
1
 10
272.633347
 20
930.880433
 30
0.0
 10
272.633347
 20
932.572113
 30
0.0
 10
274.013557
 20
933.934003
 30
0.0
 10
275.727997
 20
933.934003
 30
0.0
  0
LWPOLYLINE
  5
189
100
AcDbEntity
  8
0
 62
7
100
AcDbPolyline
 90
2
 70
0
 10
272.633347
 20
885.295013
 30
0.0
 10
272.633347
 20
930.880433
 30
0.0
  0
LWPOLYLINE
  5
18a
100
AcDbEntity
  8
0
 62
7
100
AcDbPolyline
 90
1
 70
1
 10
275.727997
 20
933.934003
 30
0.0
  0
SPLINE
  5
18b
100
AcDbEntity
  8
0
 62
7
100
AcDbSpline
 70
8
 71
3
 72
8
 73
4
 74
0
 40
0
 40
0
 40
0
 40
0
 40
1
 40
1
 40
1
 40
1
 10
378.523847
 20
933.934003
 30
0.0
 10
380.238287
 20
933.934003
 30
0.0
 10
381.618497
 20
932.572113
 30
0.0
 10
381.618497
 20
930.880433
 30
0.0
  0
LWPOLYLINE
  5
18c
100
AcDbEntity
  8
0
 62
7
100
AcDbPolyline
 90
2
 70
0
 10
333.020577
 20
933.934003
 30
0.0
 10
378.523847
 20
933.934003
 30
0.0
  0
SPLINE
  5
18d
100
AcDbEntity
  8
0
 62
7
100
AcDbSpline
 70
8
 71
3
 72
8
 73
4
 74
0
 40
0
 40
0
 40
0
 40
0
 40
1
 40
1
 40
1
 40
1
 10
381.618497
 20
885.295013
 30
0.0
 10
381.618497
 20
883.603333
 30
0.0
 10
380.238287
 20
882.241443
 30
0.0
 10
378.523847
 20
882.241443
 30
0.0
  0
LWPOLYLINE
  5
18e
100
AcDbEntity
  8
0
 62
7
100
AcDbPolyline
 90
2
 70
0
 10
381.618497
 20
930.880433
 30
0.0
 10
381.618497
 20
885.295013
 30
0.0
  0
SPLINE
  5
18f
100
AcDbEntity
  8
0
 62
7
100
AcDbSpline
 70
8
 71
3
 72
8
 73
4
 74
0
 40
0
 40
0
 40
0
 40
0
 40
1
 40
1
 40
1
 40
1
 10
333.020577
 20
882.241443
 30
0.0
 10
331.306147
 20
882.241443
 30
0.0
 10
329.925937
 20
883.603333
 30
0.0
 10
329.925937
 20
885.295013
 30
0.0
  0
LWPOLYLINE
  5
190
100
AcDbEntity
  8
0
 62
7
100
AcDbPolyline
 90
2
 70
0
 10
378.523847
 20
882.241443
 30
0.0
 10
333.020577
 20
882.241443
 30
0.0
  0
SPLINE
  5
191
100
AcDbEntity
  8
0
 62
7
100
AcDbSpline
 70
8
 71
3
 72
8
 73
4
 74
0
 40
0
 40
0
 40
0
 40
0
 40
1
 40
1
 40
1
 40
1
 10
329.925937
 20
930.880433
 30
0.0
 10
329.925937
 20
932.572113
 30
0.0
 10
331.306147
 20
933.934003
 30
0.0
 10
333.020577
 20
933.934003
 30
0.0
  0
LWPOLYLINE
  5
192
100
AcDbEntity
  8
0
 62
7
100
AcDbPolyline
 90
2
 70
0
 10
329.925937
 20
885.295013
 30
0.0
 10
329.925937
 20
930.880433
 30
0.0
  0
LWPOLYLINE
  5
193
100
AcDbEntity
  8
0
 62
7
100
AcDbPolyline
 90
1
 70
1
 10
333.020577
 20
933.934003
 30
0.0
  0
SPLINE
  5
194
100
AcDbEntity
  8
0
 62
7
100
AcDbSpline
 70
8
 71
3
 72
8
 73
4
 74
0
 40
0
 40
0
 40
0
 40
0
 40
1
 40
1
 40
1
 40
1
 10
124.120960
 20
920.477210
 30
0.0
 10
124.120958
 20
890.127943
 30
0.0
 10
99.518017
 20
865.525002
 30
0.0
 10
69.168750
 20
865.525000
 30
0.0
  0
SPLINE
  5
195
100
AcDbEntity
  8
0
 62
7
100
AcDbSpline
 70
8
 71
3
 72
8
 73
4
 74
0
 40
0
 40
0
 40
0
 40
0
 40
1
 40
1
 40
1
 40
1
 10
69.168750
 20
865.525000
 30
0.0
 10
38.819482
 20
865.525000
 30
0.0
 10
14.216539
 20
890.127942
 30
0.0
 10
14.216537
 20
920.477210
 30
0.0
  0
SPLINE
  5
196
100
AcDbEntity
  8
0
 62
7
100
AcDbSpline
 70
8
 71
3
 72
8
 73
4
 74
0
 40
0
 40
0
 40
0
 40
0
 40
1
 40
1
 40
1
 40
1
 10
14.216537
 20
920.477210
 30
0.0
 10
14.216539
 20
950.826478
 30
0.0
 10
38.819482
 20
975.429420
 30
0.0
 10
69.168750
 20
975.429420
 30
0.0
  0
SPLINE
  5
197
100
AcDbEntity
  8
0
 62
7
100
AcDbSpline
 70
8
 71
3
 72
8
 73
4
 74
0
 40
0
 40
0
 40
0
 40
0
 40
1
 40
1
 40
1
 40
1
 10
69.168750
 20
975.429420
 30
0.0
 10
99.518017
 20
975.429418
 30
0.0
 10
124.120958
 20
950.826477
 30
0.0
 10
124.120960
 20
920.477210
 30
0.0
  0
LWPOLYLINE
  5
198
100
AcDbEntity
  8
0
 62
7
100
AcDbPolyline
 90
60
 70
1
 10
8.168750
 20
857.525000
 30
0.0
 10
18.335450
 20
857.525000
 30
0.0
 10
18.335450
 20
854.525000
 30
0.0
 10
38.668750
 20
854.525000
 30
0.0
 10
38.668750
 20
857.525000
 30
0.0
 10
48.835450
 20
857.525000
 30
0.0
 10
59.002050
 20
857.525000
 30
0.0
 10
59.002050
 20
854.525000
 30
0.0
 10
79.335450
 20
854.525000
 30
0.0
 10
79.335450
 20
857.525000
 30
0.0
 10
89.502050
 20
857.525000
 30
0.0
 10
99.668750
 20
857.525000
 30
0.0
 10
99.668750
 20
854.525000
 30
0.0
 10
120.002050
 20
854.525000
 30
0.0
 10
120.002050
 20
857.525000
 30
0.0
 10
130.168750
 20
857.525000
 30
0.0
 10
130.168750
 20
868.775000
 30
0.0
 10
133.168750
 20
868.775000
 30
0.0
 10
133.168750
 20
891.275000
 30
0.0
 10
130.168750
 20
891.275000
 30
0.0
 10
130.168750
 20
902.525000
 30
0.0
 10
130.168750
 20
913.775000
 30
0.0
 10
133.168750
 20
913.775000
 30
0.0
 10
133.168750
 20
936.275000
 30
0.0
 10
130.168750
 20
936.275000
 30
0.0
 10
130.168750
 20
947.525000
 30
0.0
 10
130.168750
 20
958.775000
 30
0.0
 10
133.168750
 20
958.775000
 30
0.0
 10
133.168750
 20
981.275000
 30
0.0
 10
130.168750
 20
981.275000
 30
0.0
 10
130.168750
 20
992.525000
 30
0.0
 10
120.002050
 20
992.525000
 30
0.0
 10
120.002050
 20
995.525000
 30
0.0
 10
99.668750
 20
995.525000
 30
0.0
 10
99.668750
 20
992.525000
 30
0.0
 10
89.502050
 20
992.525000
 30
0.0
 10
79.335450
 20
992.525000
 30
0.0
 10
79.335450
 20
995.525000
 30
0.0
 10
59.002050
 20
995.525000
 30
0.0
 10
59.002050
 20
992.525000
 30
0.0
 10
48.835450
 20
992.525000
 30
0.0
 10
38.668750
 20
992.525000
 30
0.0
 10
38.668750
 20
995.525000
 30
0.0
 10
18.335450
 20
995.525000
 30
0.0
 10
18.335450
 20
992.525000
 30
0.0
 10
8.168750
 20
992.525000
 30
0.0
 10
8.168750
 20
981.275000
 30
0.0
 10
5.168750
 20
981.275000
 30
0.0
 10
5.168750
 20
958.775000
 30
0.0
 10
8.168750
 20
958.775000
 30
0.0
 10
8.168750
 20
947.525000
 30
0.0
 10
8.168750
 20
936.275000
 30
0.0
 10
5.168750
 20
936.275000
 30
0.0
 10
5.168750
 20
913.775000
 30
0.0
 10
8.168750
 20
913.775000
 30
0.0
 10
8.168750
 20
902.525000
 30
0.0
 10
8.168750
 20
891.275000
 30
0.0
 10
5.168750
 20
891.275000
 30
0.0
 10
5.168750
 20
868.775000
 30
0.0
 10
8.168750
 20
868.775000
 30
0.0
  0
SPLINE
  5
199
100
AcDbEntity
  8
0
 62
7
100
AcDbSpline
 70
8
 71
3
 72
8
 73
4
 74
0
 40
0
 40
0
 40
0
 40
0
 40
1
 40
1
 40
1
 40
1
 10
124.619250
 20
867.876700
 30
0.0
 10
124.619248
 20
866.302689
 30
0.0
 10
123.343261
 20
865.026702
 30
0.0
 10
121.769250
 20
865.026700
 30
0.0
  0
SPLINE
  5
19a
100
AcDbEntity
  8
0
 62
7
100
AcDbSpline
 70
8
 71
3
 72
8
 73
4
 74
0
 40
0
 40
0
 40
0
 40
0
 40
1
 40
1
 40
1
 40
1
 10
121.769250
 20
865.026700
 30
0.0
 10
120.195239
 20
865.026702
 30
0.0
 10
118.919252
 20
866.302689
 30
0.0
 10
118.919250
 20
867.876700
 30
0.0
  0
SPLINE
  5
19b
100
AcDbEntity
  8
0
 62
7
100
AcDbSpline
 70
8
 71
3
 72
8
 73
4
 74
0
 40
0
 40
0
 40
0
 40
0
 40
1
 40
1
 40
1
 40
1
 10
118.919250
 20
867.876700
 30
0.0
 10
118.919252
 20
869.450711
 30
0.0
 10
120.195239
 20
870.726698
 30
0.0
 10
121.769250
 20
870.726700
 30
0.0
  0
SPLINE
  5
19c
100
AcDbEntity
  8
0
 62
7
100
AcDbSpline
 70
8
 71
3
 72
8
 73
4
 74
0
 40
0
 40
0
 40
0
 40
0
 40
1
 40
1
 40
1
 40
1
 10
121.769250
 20
870.726700
 30
0.0
 10
123.343261
 20
870.726698
 30
0.0
 10
124.619248
 20
869.450711
 30
0.0
 10
124.619250
 20
867.876700
 30
0.0
  0
LWPOLYLINE
  5
19d
100
AcDbEntity
  8
0
 62
7
100
AcDbPolyline
 90
1
 70
1
 10
124.120960
 20
920.477210
 30
0.0
  0
SPLINE
  5
19e
100
AcDbEntity
  8
0
 62
7
100
AcDbSpline
 70
8
 71
3
 72
8
 73
4
 74
0
 40
0
 40
0
 40
0
 40
0
 40
1
 40
1
 40
1
 40
1
 10
19.418249
 20
867.876700
 30
0.0
 10
19.418249
 20
867.120833
 30
0.0
 10
19.117982
 20
866.395924
 30
0.0
 10
18.583503
 20
865.861446
 30
0.0
  0
SPLINE
  5
19f
100
AcDbEntity
  8
0
 62
7
100
AcDbSpline
 70
8
 71
3
 72
8
 73
4
 74
0
 40
0
 40
0
 40
0
 40
0
 40
1
 40
1
 40
1
 40
1
 10
18.583503
 20
865.861446
 30
0.0
 10
18.049025
 20
865.326967
 30
0.0
 10
17.324116
 20
865.026700
 30
0.0
 10
16.568249
 20
865.026700
 30
0.0
  0
SPLINE
  5
1a0
100
AcDbEntity
  8
0
 62
7
100
AcDbSpline
 70
8
 71
3
 72
8
 73
4
 74
0
 40
0
 40
0
 40
0
 40
0
 40
1
 40
1
 40
1
 40
1
 10
16.568249
 20
865.026700
 30
0.0
 10
15.812382
 20
865.026700
 30
0.0
 10
15.087473
 20
865.326967
 30
0.0
 10
14.552995
 20
865.861446
 30
0.0
  0
SPLINE
  5
1a1
100
AcDbEntity
  8
0
 62
7
100
AcDbSpline
 70
8
 71
3
 72
8
 73
4
 74
0
 40
0
 40
0
 40
0
 40
0
 40
1
 40
1
 40
1
 40
1
 10
14.552995
 20
865.861446
 30
0.0
 10
14.018516
 20
866.395924
 30
0.0
 10
13.718249
 20
867.120833
 30
0.0
 10
13.718249
 20
867.876700
 30
0.0
  0
SPLINE
  5
1a2
100
AcDbEntity
  8
0
 62
7
100
AcDbSpline
 70
8
 71
3
 72
8
 73
4
 74
0
 40
0
 40
0
 40
0
 40
0
 40
1
 40
1
 40
1
 40
1
 10
13.718249
 20
867.876700
 30
0.0
 10
13.718254
 20
869.450708
 30
0.0
 10
14.994241
 20
870.726690
 30
0.0
 10
16.568249
 20
870.726690
 30
0.0
  0
SPLINE
  5
1a3
100
AcDbEntity
  8
0
 62
7
100
AcDbSpline
 70
8
 71
3
 72
8
 73
4
 74
0
 40
0
 40
0
 40
0
 40
0
 40
1
 40
1
 40
1
 40
1
 10
16.568249
 20
870.726690
 30
0.0
 10
18.142257
 20
870.726690
 30
0.0
 10
19.418244
 20
869.450708
 30
0.0
 10
19.418249
 20
867.876700
 30
0.0
  0
LWPOLYLINE
  5
1a4
100
AcDbEntity
  8
0
 62
7
100
AcDbPolyline
 90
1
 70
1
 10
124.619250
 20
867.876700
 30
0.0
  0
SPLINE
  5
1a5
100
AcDbEntity
  8
0
 62
7
100
AcDbSpline
 70
8
 71
3
 72
8
 73
4
 74
0
 40
0
 40
0
 40
0
 40
0
 40
1
 40
1
 40
1
 40
1
 10
19.418249
 20
973.077700
 30
0.0
 10
19.418244
 20
971.503692
 30
0.0
 10
18.142257
 20
970.227710
 30
0.0
 10
16.568249
 20
970.227710
 30
0.0
  0
SPLINE
  5
1a6
100
AcDbEntity
  8
0
 62
7
100
AcDbSpline
 70
8
 71
3
 72
8
 73
4
 74
0
 40
0
 40
0
 40
0
 40
0
 40
1
 40
1
 40
1
 40
1
 10
16.568249
 20
970.227710
 30
0.0
 10
14.994241
 20
970.227710
 30
0.0
 10
13.718254
 20
971.503692
 30
0.0
 10
13.718249
 20
973.077700
 30
0.0
  0
SPLINE
  5
1a7
100
AcDbEntity
  8
0
 62
7
100
AcDbSpline
 70
8
 71
3
 72
8
 73
4
 74
0
 40
0
 40
0
 40
0
 40
0
 40
1
 40
1
 40
1
 40
1
 10
13.718249
 20
973.077700
 30
0.0
 10
13.718249
 20
973.833567
 30
0.0
 10
14.018516
 20
974.558476
 30
0.0
 10
14.552995
 20
975.092954
 30
0.0
  0
SPLINE
  5
1a8
100
AcDbEntity
  8
0
 62
7
100
AcDbSpline
 70
8
 71
3
 72
8
 73
4
 74
0
 40
0
 40
0
 40
0
 40
0
 40
1
 40
1
 40
1
 40
1
 10
14.552995
 20
975.092954
 30
0.0
 10
15.087473
 20
975.627433
 30
0.0
 10
15.812382
 20
975.927700
 30
0.0
 10
16.568249
 20
975.927700
 30
0.0
  0
SPLINE
  5
1a9
100
AcDbEntity
  8
0
 62
7
100
AcDbSpline
 70
8
 71
3
 72
8
 73
4
 74
0
 40
0
 40
0
 40
0
 40
0
 40
1
 40
1
 40
1
 40
1
 10
16.568249
 20
975.927700
 30
0.0
 10
17.324116
 20
975.927700
 30
0.0
 10
18.049025
 20
975.627433
 30
0.0
 10
18.583503
 20
975.092954
 30
0.0
  0
SPLINE
  5
1aa
100
AcDbEntity
  8
0
 62
7
100
AcDbSpline
 70
8
 71
3
 72
8
 73
4
 74
0
 40
0
 40
0
 40
0
 40
0
 40
1
 40
1
 40
1
 40
1
 10
18.583503
 20
975.092954
 30
0.0
 10
19.117982
 20
974.558476
 30
0.0
 10
19.418249
 20
973.833567
 30
0.0
 10
19.418249
 20
973.077700
 30
0.0
  0
LWPOLYLINE
  5
1ab
100
AcDbEntity
  8
0
 62
7
100
AcDbPolyline
 90
1
 70
1
 10
19.418249
 20
867.876700
 30
0.0
  0
SPLINE
  5
1ac
100
AcDbEntity
  8
0
 62
7
100
AcDbSpline
 70
8
 71
3
 72
8
 73
4
 74
0
 40
0
 40
0
 40
0
 40
0
 40
1
 40
1
 40
1
 40
1
 10
124.619250
 20
973.077700
 30
0.0
 10
124.619248
 20
971.503689
 30
0.0
 10
123.343261
 20
970.227702
 30
0.0
 10
121.769250
 20
970.227700
 30
0.0
  0
SPLINE
  5
1ad
100
AcDbEntity
  8
0
 62
7
100
AcDbSpline
 70
8
 71
3
 72
8
 73
4
 74
0
 40
0
 40
0
 40
0
 40
0
 40
1
 40
1
 40
1
 40
1
 10
121.769250
 20
970.227700
 30
0.0
 10
120.195239
 20
970.227702
 30
0.0
 10
118.919252
 20
971.503689
 30
0.0
 10
118.919250
 20
973.077700
 30
0.0
  0
SPLINE
  5
1ae
100
AcDbEntity
  8
0
 62
7
100
AcDbSpline
 70
8
 71
3
 72
8
 73
4
 74
0
 40
0
 40
0
 40
0
 40
0
 40
1
 40
1
 40
1
 40
1
 10
118.919250
 20
973.077700
 30
0.0
 10
118.919252
 20
974.651711
 30
0.0
 10
120.195239
 20
975.927698
 30
0.0
 10
121.769250
 20
975.927700
 30
0.0
  0
SPLINE
  5
1af
100
AcDbEntity
  8
0
 62
7
100
AcDbSpline
 70
8
 71
3
 72
8
 73
4
 74
0
 40
0
 40
0
 40
0
 40
0
 40
1
 40
1
 40
1
 40
1
 10
121.769250
 20
975.927700
 30
0.0
 10
123.343261
 20
975.927698
 30
0.0
 10
124.619248
 20
974.651711
 30
0.0
 10
124.619250
 20
973.077700
 30
0.0
  0
LWPOLYLINE
  5
1b0
100
AcDbEntity
  8
0
 62
7
100
AcDbPolyline
 90
1
 70
1
 10
19.418249
 20
973.077700
 30
0.0
  0
SPLINE
  5
1b1
100
AcDbEntity
  8
0
 62
7
100
AcDbSpline
 70
8
 71
3
 72
8
 73
4
 74
0
 40
0
 40
0
 40
0
 40
0
 40
1
 40
1
 40
1
 40
1
 10
74.768750
 20
984.924990
 30
0.0
 10
74.768750
 20
983.439778
 30
0.0
 10
74.178752
 20
982.015396
 30
0.0
 10
73.128548
 20
980.965192
 30
0.0
  0
SPLINE
  5
1b2
100
AcDbEntity
  8
0
 62
7
100
AcDbSpline
 70
8
 71
3
 72
8
 73
4
 74
0
 40
0
 40
0
 40
0
 40
0
 40
1
 40
1
 40
1
 40
1
 10
73.128548
 20
980.965192
 30
0.0
 10
72.078344
 20
979.914988
 30
0.0
 10
70.653962
 20
979.324990
 30
0.0
 10
69.168750
 20
979.324990
 30
0.0
  0
SPLINE
  5
1b3
100
AcDbEntity
  8
0
 62
7
100
AcDbSpline
 70
8
 71
3
 72
8
 73
4
 74
0
 40
0
 40
0
 40
0
 40
0
 40
1
 40
1
 40
1
 40
1
 10
69.168750
 20
979.324990
 30
0.0
 10
67.683538
 20
979.324990
 30
0.0
 10
66.259156
 20
979.914988
 30
0.0
 10
65.208952
 20
980.965192
 30
0.0
  0
SPLINE
  5
1b4
100
AcDbEntity
  8
0
 62
7
100
AcDbSpline
 70
8
 71
3
 72
8
 73
4
 74
0
 40
0
 40
0
 40
0
 40
0
 40
1
 40
1
 40
1
 40
1
 10
65.208952
 20
980.965192
 30
0.0
 10
64.158748
 20
982.015396
 30
0.0
 10
63.568750
 20
983.439778
 30
0.0
 10
63.568750
 20
984.924990
 30
0.0
  0
SPLINE
  5
1b5
100
AcDbEntity
  8
0
 62
7
100
AcDbSpline
 70
8
 71
3
 72
8
 73
4
 74
0
 40
0
 40
0
 40
0
 40
0
 40
1
 40
1
 40
1
 40
1
 10
63.568750
 20
984.924990
 30
0.0
 10
63.568750
 20
986.410202
 30
0.0
 10
64.158748
 20
987.834584
 30
0.0
 10
65.208952
 20
988.884788
 30
0.0
  0
SPLINE
  5
1b6
100
AcDbEntity
  8
0
 62
7
100
AcDbSpline
 70
8
 71
3
 72
8
 73
4
 74
0
 40
0
 40
0
 40
0
 40
0
 40
1
 40
1
 40
1
 40
1
 10
65.208952
 20
988.884788
 30
0.0
 10
66.259156
 20
989.934992
 30
0.0
 10
67.683538
 20
990.524990
 30
0.0
 10
69.168750
 20
990.524990
 30
0.0
  0
SPLINE
  5
1b7
100
AcDbEntity
  8
0
 62
7
100
AcDbSpline
 70
8
 71
3
 72
8
 73
4
 74
0
 40
0
 40
0
 40
0
 40
0
 40
1
 40
1
 40
1
 40
1
 10
69.168750
 20
990.524990
 30
0.0
 10
70.653962
 20
990.524990
 30
0.0
 10
72.078344
 20
989.934992
 30
0.0
 10
73.128548
 20
988.884788
 30
0.0
  0
SPLINE
  5
1b8
100
AcDbEntity
  8
0
 62
7
100
AcDbSpline
 70
8
 71
3
 72
8
 73
4
 74
0
 40
0
 40
0
 40
0
 40
0
 40
1
 40
1
 40
1
 40
1
 10
73.128548
 20
988.884788
 30
0.0
 10
74.178752
 20
987.834584
 30
0.0
 10
74.768750
 20
986.410202
 30
0.0
 10
74.768750
 20
984.924990
 30
0.0
  0
LWPOLYLINE
  5
1b9
100
AcDbEntity
  8
0
 62
7
100
AcDbPolyline
 90
1
 70
1
 10
124.619250
 20
973.077700
 30
0.0
  0
SPLINE
  5
1ba
100
AcDbEntity
  8
0
 62
5
100
AcDbSpline
 70
8
 71
3
 72
8
 73
4
 74
0
 40
0
 40
0
 40
0
 40
0
 40
1
 40
1
 40
1
 40
1
 10
165.564079
 20
978.274870
 30
0.0
 10
165.564079
 20
974.738119
 30
0.0
 10
163.677245
 20
971.470027
 30
0.0
 10
160.614329
 20
969.701652
 30
0.0
  0
SPLINE
  5
1bb
100
AcDbEntity
  8
0
 62
5
100
AcDbSpline
 70
8
 71
3
 72
8
 73
4
 74
0
 40
0
 40
0
 40
0
 40
0
 40
1
 40
1
 40
1
 40
1
 10
160.614329
 20
969.701652
 30
0.0
 10
157.551413
 20
967.933276
 30
0.0
 10
153.777745
 20
967.933276
 30
0.0
 10
150.714829
 20
969.701652
 30
0.0
  0
SPLINE
  5
1bc
100
AcDbEntity
  8
0
 62
5
100
AcDbSpline
 70
8
 71
3
 72
8
 73
4
 74
0
 40
0
 40
0
 40
0
 40
0
 40
1
 40
1
 40
1
 40
1
 10
150.714829
 20
969.701652
 30
0.0
 10
147.651913
 20
971.470027
 30
0.0
 10
145.765079
 20
974.738119
 30
0.0
 10
145.765079
 20
978.274870
 30
0.0
  0
SPLINE
  5
1bd
100
AcDbEntity
  8
0
 62
5
100
AcDbSpline
 70
8
 71
3
 72
8
 73
4
 74
0
 40
0
 40
0
 40
0
 40
0
 40
1
 40
1
 40
1
 40
1
 10
145.765079
 20
978.274870
 30
0.0
 10
145.765079
 20
981.811621
 30
0.0
 10
147.651913
 20
985.079713
 30
0.0
 10
150.714829
 20
986.848088
 30
0.0
  0
SPLINE
  5
1be
100
AcDbEntity
  8
0
 62
5
100
AcDbSpline
 70
8
 71
3
 72
8
 73
4
 74
0
 40
0
 40
0
 40
0
 40
0
 40
1
 40
1
 40
1
 40
1
 10
150.714829
 20
986.848088
 30
0.0
 10
153.777745
 20
988.616464
 30
0.0
 10
157.551413
 20
988.616464
 30
0.0
 10
160.614329
 20
986.848088
 30
0.0
  0
SPLINE
  5
1bf
100
AcDbEntity
  8
0
 62
5
100
AcDbSpline
 70
8
 71
3
 72
8
 73
4
 74
0
 40
0
 40
0
 40
0
 40
0
 40
1
 40
1
 40
1
 40
1
 10
160.614329
 20
986.848088
 30
0.0
 10
163.677245
 20
985.079713
 30
0.0
 10
165.564079
 20
981.811621
 30
0.0
 10
165.564079
 20
978.274870
 30
0.0
  0
LWPOLYLINE
  5
1c0
100
AcDbEntity
  8
0
 62
7
100
AcDbPolyline
 90
1
 70
1
 10
74.768750
 20
984.924990
 30
0.0
  0
SPLINE
  5
1c1
100
AcDbEntity
  8
0
 62
1
100
AcDbSpline
 70
8
 71
3
 72
8
 73
4
 74
0
 40
0
 40
0
 40
0
 40
0
 40
1
 40
1
 40
1
 40
1
 10
159.564079
 20
978.274870
 30
0.0
 10
159.564079
 20
976.881713
 30
0.0
 10
158.820838
 20
975.594383
 30
0.0
 10
157.614329
 20
974.897804
 30
0.0
  0
SPLINE
  5
1c2
100
AcDbEntity
  8
0
 62
1
100
AcDbSpline
 70
8
 71
3
 72
8
 73
4
 74
0
 40
0
 40
0
 40
0
 40
0
 40
1
 40
1
 40
1
 40
1
 10
157.614329
 20
974.897804
 30
0.0
 10
156.407819
 20
974.201225
 30
0.0
 10
154.921338
 20
974.201225
 30
0.0
 10
153.714829
 20
974.897804
 30
0.0
  0
SPLINE
  5
1c3
100
AcDbEntity
  8
0
 62
1
100
AcDbSpline
 70
8
 71
3
 72
8
 73
4
 74
0
 40
0
 40
0
 40
0
 40
0
 40
1
 40
1
 40
1
 40
1
 10
153.714829
 20
974.897804
 30
0.0
 10
152.508319
 20
975.594383
 30
0.0
 10
151.765079
 20
976.881713
 30
0.0
 10
151.765079
 20
978.274870
 30
0.0
  0
SPLINE
  5
1c4
100
AcDbEntity
  8
0
 62
1
100
AcDbSpline
 70
8
 71
3
 72
8
 73
4
 74
0
 40
0
 40
0
 40
0
 40
0
 40
1
 40
1
 40
1
 40
1
 10
151.765079
 20
978.274870
 30
0.0
 10
151.765079
 20
979.668027
 30
0.0
 10
152.508319
 20
980.955357
 30
0.0
 10
153.714829
 20
981.651936
 30
0.0
  0
SPLINE
  5
1c5
100
AcDbEntity
  8
0
 62
1
100
AcDbSpline
 70
8
 71
3
 72
8
 73
4
 74
0
 40
0
 40
0
 40
0
 40
0
 40
1
 40
1
 40
1
 40
1
 10
153.714829
 20
981.651936
 30
0.0
 10
154.921338
 20
982.348515
 30
0.0
 10
156.407819
 20
982.348515
 30
0.0
 10
157.614329
 20
981.651936
 30
0.0
  0
SPLINE
  5
1c6
100
AcDbEntity
  8
0
 62
1
100
AcDbSpline
 70
8
 71
3
 72
8
 73
4
 74
0
 40
0
 40
0
 40
0
 40
0
 40
1
 40
1
 40
1
 40
1
 10
157.614329
 20
981.651936
 30
0.0
 10
158.820838
 20
980.955357
 30
0.0
 10
159.564079
 20
979.668027
 30
0.0
 10
159.564079
 20
978.274870
 30
0.0
  0
LWPOLYLINE
  5
1c7
100
AcDbEntity
  8
0
 62
5
100
AcDbPolyline
 90
1
 70
1
 10
165.564079
 20
978.274870
 30
0.0
  0
SPLINE
  5
1c8
100
AcDbEntity
  8
0
 62
5
100
AcDbSpline
 70
8
 71
3
 72
8
 73
4
 74
0
 40
0
 40
0
 40
0
 40
0
 40
1
 40
1
 40
1
 40
1
 10
253.864082
 20
978.274871
 30
0.0
 10
253.864082
 20
972.807528
 30
0.0
 10
249.431925
 20
968.375371
 30
0.0
 10
243.964582
 20
968.375371
 30
0.0
  0
SPLINE
  5
1c9
100
AcDbEntity
  8
0
 62
5
100
AcDbSpline
 70
8
 71
3
 72
8
 73
4
 74
0
 40
0
 40
0
 40
0
 40
0
 40
1
 40
1
 40
1
 40
1
 10
243.964582
 20
968.375371
 30
0.0
 10
238.497240
 20
968.375371
 30
0.0
 10
234.065083
 20
972.807528
 30
0.0
 10
234.065082
 20
978.274871
 30
0.0
  0
SPLINE
  5
1ca
100
AcDbEntity
  8
0
 62
5
100
AcDbSpline
 70
8
 71
3
 72
8
 73
4
 74
0
 40
0
 40
0
 40
0
 40
0
 40
1
 40
1
 40
1
 40
1
 10
234.065082
 20
978.274871
 30
0.0
 10
234.065083
 20
983.742213
 30
0.0
 10
238.497240
 20
988.174370
 30
0.0
 10
243.964582
 20
988.174370
 30
0.0
  0
SPLINE
  5
1cb
100
AcDbEntity
  8
0
 62
5
100
AcDbSpline
 70
8
 71
3
 72
8
 73
4
 74
0
 40
0
 40
0
 40
0
 40
0
 40
1
 40
1
 40
1
 40
1
 10
243.964582
 20
988.174370
 30
0.0
 10
249.431925
 20
988.174370
 30
0.0
 10
253.864082
 20
983.742213
 30
0.0
 10
253.864082
 20
978.274871
 30
0.0
  0
LWPOLYLINE
  5
1cc
100
AcDbEntity
  8
0
 62
1
100
AcDbPolyline
 90
1
 70
1
 10
159.564079
 20
978.274870
 30
0.0
  0
SPLINE
  5
1cd
100
AcDbEntity
  8
0
 62
1
100
AcDbSpline
 70
8
 71
3
 72
8
 73
4
 74
0
 40
0
 40
0
 40
0
 40
0
 40
1
 40
1
 40
1
 40
1
 10
247.864082
 20
978.274871
 30
0.0
 10
247.864082
 20
976.121236
 30
0.0
 10
246.118216
 20
974.375371
 30
0.0
 10
243.964582
 20
974.375371
 30
0.0
  0
SPLINE
  5
1ce
100
AcDbEntity
  8
0
 62
1
100
AcDbSpline
 70
8
 71
3
 72
8
 73
4
 74
0
 40
0
 40
0
 40
0
 40
0
 40
1
 40
1
 40
1
 40
1
 10
243.964582
 20
974.375371
 30
0.0
 10
241.810948
 20
974.375371
 30
0.0
 10
240.065082
 20
976.121236
 30
0.0
 10
240.065082
 20
978.274871
 30
0.0
  0
SPLINE
  5
1cf
100
AcDbEntity
  8
0
 62
1
100
AcDbSpline
 70
8
 71
3
 72
8
 73
4
 74
0
 40
0
 40
0
 40
0
 40
0
 40
1
 40
1
 40
1
 40
1
 10
240.065082
 20
978.274871
 30
0.0
 10
240.065082
 20
979.668028
 30
0.0
 10
240.808323
 20
980.955358
 30
0.0
 10
242.014832
 20
981.651937
 30
0.0
  0
SPLINE
  5
1d0
100
AcDbEntity
  8
0
 62
1
100
AcDbSpline
 70
8
 71
3
 72
8
 73
4
 74
0
 40
0
 40
0
 40
0
 40
0
 40
1
 40
1
 40
1
 40
1
 10
242.014832
 20
981.651937
 30
0.0
 10
243.221342
 20
982.348515
 30
0.0
 10
244.707823
 20
982.348515
 30
0.0
 10
245.914332
 20
981.651937
 30
0.0
  0
SPLINE
  5
1d1
100
AcDbEntity
  8
0
 62
1
100
AcDbSpline
 70
8
 71
3
 72
8
 73
4
 74
0
 40
0
 40
0
 40
0
 40
0
 40
1
 40
1
 40
1
 40
1
 10
245.914332
 20
981.651937
 30
0.0
 10
247.120842
 20
980.955358
 30
0.0
 10
247.864082
 20
979.668028
 30
0.0
 10
247.864082
 20
978.274871
 30
0.0
  0
LWPOLYLINE
  5
1d2
100
AcDbEntity
  8
0
 62
5
100
AcDbPolyline
 90
1
 70
1
 10
253.864082
 20
978.274871
 30
0.0
  0
LWPOLYLINE
  5
1d3
100
AcDbEntity
  8
0
 62
1
100
AcDbPolyline
 90
1
 70
1
 10
247.864082
 20
978.274871
 30
0.0
  0
ENDSEC
  0
SECTION
  2
OBJECTS
  0
DICTIONARY
  5
C
330
0
100
AcDbDictionary
  3
ACAD_GROUP
350
D
  3
ACAD_MLINESTYLE
350
17
  0
DICTIONARY
  5
D
330
C
100
AcDbDictionary
  0
DICTIONARY
  5
1A
330
C
100
AcDbDictionary
  0
DICTIONARY
  5
17
330
C
100
AcDbDictionary
  3
STANDARD
350
18
  0
DICTIONARY
  5
19
330
C
100
AcDbDictionary
  0
ENDSEC
  0
EOF
