<?xml version="1.0" encoding="UTF-8" standalone="no"?>
<svg
   xmlns:dc="http://purl.org/dc/elements/1.1/"
   xmlns:cc="http://creativecommons.org/ns#"
   xmlns:rdf="http://www.w3.org/1999/02/22-rdf-syntax-ns#"
   xmlns:svg="http://www.w3.org/2000/svg"
   xmlns="http://www.w3.org/2000/svg"
   xmlns:sodipodi="http://sodipodi.sourceforge.net/DTD/sodipodi-0.dtd"
   xmlns:inkscape="http://www.inkscape.org/namespaces/inkscape"
   inkscape:version="0.92.2 2405546, 2018-03-11"
   sodipodi:docname="humo_120x120mm.svg"
   id="svg22"
   viewBox="0 -400 600 600"
   height="600mm"
   width="600mm"
   version="1.1">
  <sodipodi:namedview
     inkscape:current-layer="svg22"
     inkscape:window-maximized="1"
     inkscape:window-y="28"
     inkscape:window-x="1920"
     inkscape:cy="1361.2681"
     inkscape:cx="443.09438"
     inkscape:zoom="0.5887057"
     showgrid="false"
     id="namedview24"
     inkscape:window-height="1101"
     inkscape:window-width="1920"
     inkscape:pageshadow="2"
     inkscape:pageopacity="0"
     guidetolerance="10"
     gridtolerance="10"
     objecttolerance="10"
     borderopacity="1"
     bordercolor="#666666"
     pagecolor="#ffffff" />
  <metadata
     id="metadata28">
    <rdf:RDF>
      <cc:Work
         rdf:about="">
        <dc:format>image/svg+xml</dc:format>
        <dc:type
           rdf:resource="http://purl.org/dc/dcmitype/StillImage" />
        <dc:title />
      </cc:Work>
    </rdf:RDF>
  </metadata>
  <defs
     id="defs26" />
  <polyline
     points=" 53,-229 63,-229 63,-226 83,-226 83,-229 93,-229 103,-229 103,-226 123,-226 123,-229 133,-229 143,-229 143,-226 163,-226 163,-229 173,-229 173,-239 176,-239 176,-259 173,-259 173,-269 173,-279 176,-279 176,-299 173,-299 173,-309 173,-319 176,-319 176,-339 173,-339 173,-349 163,-349 163,-352 143,-352 143,-349 133,-349 123,-349 123,-352 103,-352 103,-349 93,-349 83,-349 83,-352 63,-352 63,-349 53,-349 53,-339 50,-339 50,-319 53,-319 53,-309 53,-299 50,-299 50,-279 53,-279 53,-269 53,-259 50,-259 50,-239 53,-239 53,-229"
     style="fill:none;stroke:#000000;stroke-width:0.3;stroke-miterlimit:4;stroke-dasharray:none;stroke-opacity:1"
     id="polyline6" />
  <polyline
     points=" 53,-53 63,-53 63,-50 83,-50 83,-53 93,-53 103,-53 103,-50 123,-50 123,-53 133,-53 143,-53 143,-50 163,-50 163,-53 173,-53 173,-63 176,-63 176,-83 173,-83 173,-93 173,-103 176,-103 176,-123 173,-123 173,-133 173,-143 176,-143 176,-163 173,-163 173,-173 163,-173 163,-176 143,-176 143,-173 133,-173 123,-173 123,-176 103,-176 103,-173 93,-173 83,-173 83,-176 63,-176 63,-173 53,-173 53,-163 50,-163 50,-143 53,-143 53,-133 53,-123 50,-123 50,-103 53,-103 53,-93 53,-83 50,-83 50,-63 53,-63 53,-53"
     style="fill:none;stroke:#000000;stroke-width:0.3;stroke-miterlimit:4;stroke-dasharray:none;fill-opacity:1;stroke-opacity:1"
     id="polyline8" />
  <polyline
     points=" 3,-50 6,-50 15.5,-50 15.5,-53 34.5,-53 34.5,-50 44,-50 47,-50 47,-53 47,-63 44,-63 44,-83 47,-83 47,-93 47,-103 44,-103 44,-123 47,-123 47,-133 47,-143 44,-143 44,-163 47,-163 47,-173 44,-173 34.5,-173 34.5,-176 15.5,-176 15.5,-173 6,-173 3,-173 3,-163 6,-163 6,-143 3,-143 3,-133 3,-123 6,-123 6,-103 3,-103 3,-93 3,-83 6,-83 6,-63 3,-63 3,-53 3,-50"
     style="fill:none;stroke:#000000;stroke-width:0.3;stroke-miterlimit:4;stroke-dasharray:none;fill-opacity:1;stroke-opacity:1"
     id="polyline10" />
  <polyline
     points=" 182,-53 191.5,-53 191.5,-50 210.5,-50 210.5,-53 220,-53 223,-53 223,-63 220,-63 220,-83 223,-83 223,-93 223,-103 220,-103 220,-123 223,-123 223,-133 223,-143 220,-143 220,-163 223,-163 223,-173 223,-176 220,-176 210.5,-176 210.5,-173 191.5,-173 191.5,-176 182,-176 179,-176 179,-173 179,-163 182,-163 182,-143 179,-143 179,-133 179,-123 182,-123 182,-103 179,-103 179,-93 179,-83 182,-83 182,-63 179,-63 179,-53 182,-53"
     style="fill:none;stroke:#000000;stroke-width:0.3;stroke-miterlimit:4;stroke-dasharray:none;fill-opacity:1;stroke-opacity:1"
     id="polyline12" />
  <polyline
     points=" 50,-179 53,-179 63,-179 63,-182 83,-182 83,-179 93,-179 103,-179 103,-182 123,-182 123,-179 133,-179 143,-179 143,-182 163,-182 163,-179 173,-179 173,-182 173,-191.5 176,-191.5 176,-210.5 173,-210.5 173,-220 173,-223 163,-223 163,-220 143,-220 143,-223 133,-223 123,-223 123,-220 103,-220 103,-223 93,-223 83,-223 83,-220 63,-220 63,-223 53,-223 50,-223 50,-220 50,-210.5 53,-210.5 53,-191.5 50,-191.5 50,-182 50,-179"
     style="fill:none;stroke:#000000;stroke-width:0.3;stroke-miterlimit:4;stroke-dasharray:none;fill-opacity:1;stroke-opacity:1"
     id="polyline14" />
  <polyline
     points=" 53,-3 63,-3 63,-6 83,-6 83,-3 93,-3 103,-3 103,-6 123,-6 123,-3 133,-3 143,-3 143,-6 163,-6 163,-3 173,-3 176,-3 176,-6 176,-15.5 173,-15.5 173,-34.5 176,-34.5 176,-44 176,-47 173,-47 163,-47 163,-44 143,-44 143,-47 133,-47 123,-47 123,-44 103,-44 103,-47 93,-47 83,-47 83,-44 63,-44 63,-47 53,-47 53,-44 53,-34.5 50,-34.5 50,-15.5 53,-15.5 53,-6 53,-3"
     style="fill:none;stroke:#000000;stroke-width:0.3;stroke-miterlimit:4;stroke-dasharray:none;fill-opacity:1;stroke-opacity:1"
     id="polyline16" />
  <!-- Created by freebie -->
  <circle
     r="54.952213"
     cy="-289"
     cx="113"
     id="path835"
     style="fill:none;fill-opacity:1;fill-rule:nonzero;stroke:#000000;stroke-width:0.30000001;stroke-miterlimit:4;stroke-dasharray:none;stroke-opacity:1" />
  <g
     id="g910"
     style="stroke-width:0.3;stroke-miterlimit:4;stroke-dasharray:none;fill:none;fill-opacity:1;stroke:#000000;stroke-opacity:1">
    <path
       inkscape:connector-curvature="0"
       d="m 63,-163 h 100 v 50 q 0,50 -50,50 v 0 q -50,0 -50,-50 z"
       style="fill:none;fill-opacity:1;fill-rule:nonzero;stroke:#000000;stroke-width:0.3;stroke-miterlimit:4;stroke-dasharray:none;stroke-opacity:1"
       id="path838" />
    <circle
       style="fill:none;fill-opacity:1;fill-rule:nonzero;stroke:#000000;stroke-width:0.3;stroke-miterlimit:4;stroke-dasharray:none;stroke-opacity:1"
       id="path980"
       cx="101.7202"
       cy="-75.500008"
       r="0.2561304" />
    <rect
       style="fill:none;fill-opacity:1;fill-rule:nonzero;stroke:#000000;stroke-width:0.3;stroke-miterlimit:4;stroke-dasharray:none;stroke-opacity:1"
       id="rect984"
       width="19.915684"
       height="94.91568"
       x="91.76236"
       y="-160.45784"
       ry="10"
       rx="10" />
    <circle
       style="fill:none;fill-opacity:1;fill-rule:nonzero;stroke:#000000;stroke-width:0.3;stroke-miterlimit:4;stroke-dasharray:none;stroke-opacity:1"
       id="path980-6"
       cx="124.2798"
       cy="-75.500008"
       r="0.2561304" />
    <rect
       style="fill:none;fill-opacity:1;fill-rule:nonzero;stroke:#000000;stroke-width:0.3;stroke-miterlimit:4;stroke-dasharray:none;stroke-opacity:1"
       id="rect984-7"
       width="19.915684"
       height="94.91568"
       x="114.32196"
       y="-160.45784"
       ry="10"
       rx="10" />
  </g>
  <circle
     r="0.2561304"
     cy="-59.5"
     cx="201"
     id="path980-6-3"
     style="fill:none;fill-opacity:1;fill-rule:nonzero;stroke:#000000;stroke-width:0.3;stroke-miterlimit:4;stroke-dasharray:none;stroke-opacity:1" />
  <circle
     r="0.2561304"
     cy="-59.5"
     cx="24.999996"
     id="path980-6-3-5"
     style="fill:none;fill-opacity:1;fill-rule:nonzero;stroke:#000000;stroke-width:0.3;stroke-miterlimit:4;stroke-dasharray:none;stroke-opacity:1" />
  <g
     id="g2213"
     style="stroke-width:0.3;stroke-miterlimit:4;stroke-dasharray:none;fill:none;fill-opacity:1;stroke:#000000;stroke-opacity:1">
    <g
       inkscape:label="Hershey Text"
       transform="matrix(0.31273678,0,0,0.31273678,57.46532,-35.914929)"
       id="g1656"
       style="stroke-width:0.95927316;stroke-miterlimit:4;stroke-dasharray:none;fill:none;fill-opacity:1;stroke:#000000;stroke-opacity:1">
      <path
         inkscape:connector-curvature="0"
         d="M -7,-12 V 9 M 7,-12 V 9 M -7,-2 H 7"
         style="fill:none;stroke:#000000;stroke-width:0.95927316;stroke-miterlimit:4;stroke-dasharray:none;fill-opacity:1;stroke-opacity:1"
         transform="translate(11)"
         id="path1648" />
      <path
         inkscape:connector-curvature="0"
         d="M -5,-5 V 5 l 1,3 2,1 H 1 L 3,8 6,5 M 6,-5 V 9"
         style="fill:none;stroke:#000000;stroke-width:0.95927316;stroke-miterlimit:4;stroke-dasharray:none;fill-opacity:1;stroke-opacity:1"
         transform="translate(31)"
         id="path1650" />
      <path
         inkscape:connector-curvature="0"
         d="M -11,-5 V 9 m 0,-10 3,-3 2,-1 h 3 l 2,1 1,3 V 9 M 0,-1 3,-4 5,-5 h 3 l 2,1 1,3 V 9"
         style="fill:none;stroke:#000000;stroke-width:0.95927316;stroke-miterlimit:4;stroke-dasharray:none;fill-opacity:1;stroke-opacity:1"
         transform="translate(56)"
         id="path1652" />
      <path
         inkscape:connector-curvature="0"
         d="m -1,-5 -2,1 -2,2 -1,3 v 2 l 1,3 2,2 2,1 H 2 L 4,8 6,6 7,3 V 1 L 6,-2 4,-4 2,-5 h -3"
         style="fill:none;stroke:#000000;stroke-width:0.95927316;stroke-miterlimit:4;stroke-dasharray:none;fill-opacity:1;stroke-opacity:1"
         transform="translate(80)"
         id="path1654" />
    </g>
    <g
       id="g1718"
       transform="matrix(0.20198972,0,0,0.20198972,72.150716,-28.351344)"
       inkscape:label="Hershey Text"
       style="stroke-width:1.48522409;stroke-miterlimit:4;stroke-dasharray:none;fill:none;fill-opacity:1;stroke:#000000;stroke-opacity:1">
      <path
         inkscape:connector-curvature="0"
         id="path1710"
         transform="translate(8)"
         style="fill:none;stroke:#000000;stroke-width:1.48522409;stroke-miterlimit:4;stroke-dasharray:none;fill-opacity:1;stroke-opacity:1"
         d="M -6,-5 0,9 M 6,-5 0,9" />
      <path
         inkscape:connector-curvature="0"
         id="path1712"
         transform="translate(26)"
         style="fill:none;stroke:#000000;stroke-width:1.48522409;stroke-miterlimit:4;stroke-dasharray:none;fill-opacity:1;stroke-opacity:1"
         d="m -4,-8 2,-1 3,-3 V 9" />
      <path
         inkscape:connector-curvature="0"
         id="path1714"
         transform="translate(40)"
         style="fill:none;stroke:#000000;stroke-width:1.48522409;stroke-miterlimit:4;stroke-dasharray:none;fill-opacity:1;stroke-opacity:1"
         d="M 0,4 -1,5 0,6 1,5 0,4" />
      <path
         inkscape:connector-curvature="0"
         id="path1716"
         transform="translate(54)"
         style="fill:none;stroke:#000000;stroke-width:1.48522409;stroke-miterlimit:4;stroke-dasharray:none;fill-opacity:1;stroke-opacity:1"
         d="m -1,-12 -3,1 -2,3 -1,5 v 3 l 1,5 2,3 3,1 H 1 L 4,8 6,5 7,0 V -3 L 6,-8 4,-11 1,-12 h -2" />
    </g>
  </g>
  <g
     id="g2201"
     style="stroke-width:0.3;stroke-miterlimit:4;stroke-dasharray:none;fill:none;fill-opacity:1;stroke:#000000;stroke-opacity:1">
    <g
       id="g1940"
       transform="matrix(0.13212268,0,0,0.13212268,139.15597,-14.47796)"
       inkscape:label="Hershey Text"
       style="stroke-width:2.27061696;stroke-miterlimit:4;stroke-dasharray:none;fill:none;fill-opacity:1;stroke:#000000;stroke-opacity:1">
      <path
         inkscape:connector-curvature="0"
         id="path1916"
         transform="translate(10)"
         style="fill:none;stroke:#000000;stroke-width:2.27061696;stroke-miterlimit:4;stroke-dasharray:none;fill-opacity:1;stroke-opacity:1"
         d="M 8,-7 7,-9 5,-11 3,-12 h -4 l -2,1 -2,2 -1,2 -1,3 v 5 l 1,3 1,2 2,2 2,1 H 3 L 5,8 7,6 8,4" />
      <path
         inkscape:connector-curvature="0"
         id="path1918"
         transform="translate(31)"
         style="fill:none;stroke:#000000;stroke-width:2.27061696;stroke-miterlimit:4;stroke-dasharray:none;fill-opacity:1;stroke-opacity:1"
         d="M 8,-7 7,-9 5,-11 3,-12 h -4 l -2,1 -2,2 -1,2 -1,3 v 5 l 1,3 1,2 2,2 2,1 H 3 L 5,8 7,6 8,4" />
      <path
         inkscape:connector-curvature="0"
         id="path1920"
         transform="translate(55)"
         style="fill:none;stroke:#000000;stroke-width:2.27061696;stroke-miterlimit:4;stroke-dasharray:none;fill-opacity:1;stroke-opacity:1"
         d="M -9,0 H 9" />
      <path
         inkscape:connector-curvature="0"
         id="path1922"
         transform="translate(79)"
         style="fill:none;stroke:#000000;stroke-width:2.27061696;stroke-miterlimit:4;stroke-dasharray:none;fill-opacity:1;stroke-opacity:1"
         d="M -7,-12 V 9 m 0,-21 h 9 l 3,1 1,1 1,2 v 2 l -1,2 -1,1 -3,1 m -9,0 h 9 l 3,1 1,1 1,2 V 5 L 6,7 5,8 2,9 h -9" />
      <path
         inkscape:connector-curvature="0"
         id="path1924"
         transform="translate(98)"
         style="fill:none;stroke:#000000;stroke-width:2.27061696;stroke-miterlimit:4;stroke-dasharray:none;fill-opacity:1;stroke-opacity:1"
         d="M -8,-12 0,-2 V 9 M 8,-12 0,-2" />
      <path
         inkscape:connector-curvature="0"
         id="path1926"
         transform="translate(120)"
         style="fill:none;stroke:#000000;stroke-width:2.27061696;stroke-miterlimit:4;stroke-dasharray:none;fill-opacity:1;stroke-opacity:1"
         d="M -9,0 H 9" />
      <path
         inkscape:connector-curvature="0"
         id="path1928"
         transform="translate(143)"
         style="fill:none;stroke:#000000;stroke-width:2.27061696;stroke-miterlimit:4;stroke-dasharray:none;fill-opacity:1;stroke-opacity:1"
         d="m 7,-9 -2,-2 -3,-1 h -4 l -3,1 -2,2 v 2 l 1,2 1,1 2,1 6,2 2,1 1,1 1,2 V 6 L 5,8 2,9 H -2 L -5,8 -7,6" />
      <path
         inkscape:connector-curvature="0"
         id="path1930"
         transform="translate(162)"
         style="fill:none;stroke:#000000;stroke-width:2.27061696;stroke-miterlimit:4;stroke-dasharray:none;fill-opacity:1;stroke-opacity:1"
         d="M 0,-12 -8,9 M 0,-12 8,9 M -5,2 H 5" />
      <path
         inkscape:connector-curvature="0"
         id="path1932"
         transform="translate(179)"
         style="fill:none;stroke:#000000;stroke-width:2.27061696;stroke-miterlimit:4;stroke-dasharray:none;fill-opacity:1;stroke-opacity:1"
         d="" />
      <path
         inkscape:connector-curvature="0"
         id="path1934"
         transform="translate(197)"
         style="fill:none;stroke:#000000;stroke-width:2.27061696;stroke-miterlimit:4;stroke-dasharray:none;fill-opacity:1;stroke-opacity:1"
         d="M 3,-12 -7,2 H 8 M 3,-12 V 9" />
      <path
         inkscape:connector-curvature="0"
         id="path1936"
         transform="translate(211)"
         style="fill:none;stroke:#000000;stroke-width:2.27061696;stroke-miterlimit:4;stroke-dasharray:none;fill-opacity:1;stroke-opacity:1"
         d="M 0,4 -1,5 0,6 1,5 0,4" />
      <path
         inkscape:connector-curvature="0"
         id="path1938"
         transform="translate(225)"
         style="fill:none;stroke:#000000;stroke-width:2.27061696;stroke-miterlimit:4;stroke-dasharray:none;fill-opacity:1;stroke-opacity:1"
         d="m -1,-12 -3,1 -2,3 -1,5 v 3 l 1,5 2,3 3,1 H 1 L 4,8 6,5 7,0 V -3 L 6,-8 4,-11 1,-12 h -2" />
    </g>
    <g
       inkscape:label="Hershey Text"
       transform="matrix(0.13277017,0,0,0.13277017,139.25369,-10.535549)"
       id="g2094"
       style="stroke-width:2.25954368;stroke-miterlimit:4;stroke-dasharray:none;fill:none;fill-opacity:1;stroke:#000000;stroke-opacity:1">
      <path
         inkscape:connector-curvature="0"
         d="M 0,-12 V 9 M -7,-12 H 7"
         style="fill:none;stroke:#000000;stroke-width:2.25954368;stroke-miterlimit:4;stroke-dasharray:none;fill-opacity:1;stroke-opacity:1"
         transform="translate(8)"
         id="path2066" />
      <path
         inkscape:connector-curvature="0"
         d="m -1,-12 1,1 1,-1 -1,-1 -1,1 m 1,7 V 9"
         style="fill:none;stroke:#000000;stroke-width:2.25954368;stroke-miterlimit:4;stroke-dasharray:none;fill-opacity:1;stroke-opacity:1"
         transform="translate(20)"
         id="path2068" />
      <path
         inkscape:connector-curvature="0"
         d="M -11,-5 V 9 m 0,-10 3,-3 2,-1 h 3 l 2,1 1,3 V 9 M 0,-1 3,-4 5,-5 h 3 l 2,1 1,3 V 9"
         style="fill:none;stroke:#000000;stroke-width:2.25954368;stroke-miterlimit:4;stroke-dasharray:none;fill-opacity:1;stroke-opacity:1"
         transform="translate(39)"
         id="path2070" />
      <path
         inkscape:connector-curvature="0"
         d="m -1,-5 -2,1 -2,2 -1,3 v 2 l 1,3 2,2 2,1 H 2 L 4,8 6,6 7,3 V 1 L 6,-2 4,-4 2,-5 h -3"
         style="fill:none;stroke:#000000;stroke-width:2.25954368;stroke-miterlimit:4;stroke-dasharray:none;fill-opacity:1;stroke-opacity:1"
         transform="translate(63)"
         id="path2072" />
      <path
         inkscape:connector-curvature="0"
         d=""
         style="fill:none;stroke:#000000;stroke-width:2.25954368;stroke-miterlimit:4;stroke-dasharray:none;fill-opacity:1;stroke-opacity:1"
         transform="translate(81)"
         id="path2074" />
      <path
         inkscape:connector-curvature="0"
         d="m 7,-9 -2,-2 -3,-1 h -4 l -3,1 -2,2 v 2 l 1,2 1,1 2,1 6,2 2,1 1,1 1,2 V 6 L 5,8 2,9 H -2 L -5,8 -7,6"
         style="fill:none;stroke:#000000;stroke-width:2.25954368;stroke-miterlimit:4;stroke-dasharray:none;fill-opacity:1;stroke-opacity:1"
         transform="translate(99)"
         id="path2076" />
      <path
         inkscape:connector-curvature="0"
         d="M 6,-2 4,-4 2,-5 h -3 l -2,1 -2,2 -1,3 v 2 l 1,3 2,2 2,1 H 2 L 4,8 6,6"
         style="fill:none;stroke:#000000;stroke-width:2.25954368;stroke-miterlimit:4;stroke-dasharray:none;fill-opacity:1;stroke-opacity:1"
         transform="translate(118)"
         id="path2078" />
      <path
         inkscape:connector-curvature="0"
         d="M -5,-12 V 9 m 0,-10 3,-3 2,-1 h 3 l 2,1 1,3 V 9"
         style="fill:none;stroke:#000000;stroke-width:2.25954368;stroke-miterlimit:4;stroke-dasharray:none;fill-opacity:1;stroke-opacity:1"
         transform="translate(136)"
         id="path2080" />
      <path
         inkscape:connector-curvature="0"
         d="m -1,-12 1,1 1,-1 -1,-1 -1,1 m 1,7 V 9"
         style="fill:none;stroke:#000000;stroke-width:2.25954368;stroke-miterlimit:4;stroke-dasharray:none;fill-opacity:1;stroke-opacity:1"
         transform="translate(150)"
         id="path2082" />
      <path
         inkscape:connector-curvature="0"
         d="M -5,-5 V 9 m 0,-10 3,-3 2,-1 h 3 l 2,1 1,3 V 9"
         style="fill:none;stroke:#000000;stroke-width:2.25954368;stroke-miterlimit:4;stroke-dasharray:none;fill-opacity:1;stroke-opacity:1"
         transform="translate(163)"
         id="path2084" />
      <path
         inkscape:connector-curvature="0"
         d="M 6,-12 V 9 M 6,-2 4,-4 2,-5 h -3 l -2,1 -2,2 -1,3 v 2 l 1,3 2,2 2,1 H 2 L 4,8 6,6"
         style="fill:none;stroke:#000000;stroke-width:2.25954368;stroke-miterlimit:4;stroke-dasharray:none;fill-opacity:1;stroke-opacity:1"
         transform="translate(182)"
         id="path2086" />
      <path
         inkscape:connector-curvature="0"
         d="M 0,-12 V 9"
         style="fill:none;stroke:#000000;stroke-width:2.25954368;stroke-miterlimit:4;stroke-dasharray:none;fill-opacity:1;stroke-opacity:1"
         transform="translate(196)"
         id="path2088" />
      <path
         inkscape:connector-curvature="0"
         d="M -6,1 H 6 V -1 L 5,-3 4,-4 2,-5 h -3 l -2,1 -2,2 -1,3 v 2 l 1,3 2,2 2,1 H 2 L 4,8 6,6"
         style="fill:none;stroke:#000000;stroke-width:2.25954368;stroke-miterlimit:4;stroke-dasharray:none;fill-opacity:1;stroke-opacity:1"
         transform="translate(209)"
         id="path2090" />
      <path
         inkscape:connector-curvature="0"
         d="M -3,-5 V 9 m 0,-8 1,-3 2,-2 2,-1 h 3"
         style="fill:none;stroke:#000000;stroke-width:2.25954368;stroke-miterlimit:4;stroke-dasharray:none;fill-opacity:1;stroke-opacity:1"
         transform="translate(225)"
         id="path2092" />
    </g>
  </g>
  <circle
     cy="-238.5"
     cx="163.5"
     id="path835-3-6"
     style="fill:none;fill-opacity:1;fill-rule:nonzero;stroke:#000000;stroke-width:0.30000001;stroke-miterlimit:4;stroke-dasharray:none;stroke-opacity:1"
     r="2.9918334" />
  <circle
     cy="-238.5"
     cx="62.499996"
     id="path835-3-6-3"
     style="fill:none;fill-opacity:1;fill-rule:nonzero;stroke:#000000;stroke-width:0.30000001;stroke-miterlimit:4;stroke-dasharray:none;stroke-opacity:1"
     r="2.9918334" />
  <circle
     cy="-339.5"
     cx="62.499996"
     id="path835-3-6-9"
     style="fill:none;fill-opacity:1;fill-rule:nonzero;stroke:#000000;stroke-width:0.30000001;stroke-miterlimit:4;stroke-dasharray:none;stroke-opacity:1"
     r="2.9918334" />
  <circle
     cy="-339.5"
     cx="163.5"
     id="path835-3-6-7"
     style="fill:none;fill-opacity:1;fill-rule:nonzero;stroke:#000000;stroke-width:0.30000001;stroke-miterlimit:4;stroke-dasharray:none;stroke-opacity:1"
     r="2.9918334" />
</svg>
