<?xml version="1.0" encoding="utf-8"?>
<!-- Generator: Adobe Illustrator 23.0.1, SVG Export Plug-In . SVG Version: 6.00 Build 0)  -->
<svg version="1.1"
	 id="svg3049" inkscape:export-filename="/home/flo/Documents/binary kitchen/binary_kitchen.png" inkscape:export-xdpi="90" inkscape:export-ydpi="90" inkscape:version="0.48.4 r9939" sodipodi:docname="binary_kitchen_2.svg" xmlns:cc="http://creativecommons.org/ns#" xmlns:dc="http://purl.org/dc/elements/1.1/" xmlns:inkscape="http://www.inkscape.org/namespaces/inkscape" xmlns:rdf="http://www.w3.org/1999/02/22-rdf-syntax-ns#" xmlns:sodipodi="http://sodipodi.sourceforge.net/DTD/sodipodi-0.dtd" xmlns:svg="http://www.w3.org/2000/svg"
	 xmlns="http://www.w3.org/2000/svg" xmlns:xlink="http://www.w3.org/1999/xlink" x="0px" y="0px" viewBox="0 0 600 600"
	 style="enable-background:new 0 0 600 600;" xml:space="preserve">
<style type="text/css">
	.st0{fill:#CCBBBB;}
</style>
<sodipodi:namedview  bordercolor="#666666" borderopacity="1.0" id="base" inkscape:current-layer="layer1" inkscape:cx="363.40739" inkscape:cy="161.47932" inkscape:document-units="px" inkscape:guide-bbox="true" inkscape:pageopacity="0" inkscape:pageshadow="2" inkscape:window-height="1031" inkscape:window-maximized="1" inkscape:window-width="1920" inkscape:window-x="0" inkscape:window-y="25" inkscape:zoom="1.3155765" pagecolor="#000000" showgrid="false" showguides="true">
	</sodipodi:namedview>
<g id="layer1" transform="translate(0,-452.36218)" inkscape:groupmode="layer" inkscape:label="Layer 1">
	<path id="path3021" class="st0" d="M234.3,498.4c-41.7,0-75.5,23.3-75.5,51.9c0,24.2,24,44.6,56.6,49.9c6.8,1.1,10.6,1.1,14.7,1.3
		c0.9,0,1.6,0.9,1.5,1.7c0,0.8-0.8,1.6-1.7,1.6c-6.1-0.3-6.8-0.3-11.3-0.7v15.3l-7.7,0c-3,0-5.5,2.4-5.4,5.3l6.3,110.9
		c0.2,3,2.4,5.1,5.4,5.3c52.2,3.7,105.1,3.9,158.6-0.1c3-0.2,5.2-2.4,5.3-5.3l6.1-110.9c0.2-3-2.4-5.3-5.3-5.3h-6.1l0-19.7
		c-1.8,0.2-4,0.3-7,0.3c-0.9,0-1.7-0.9-1.7-1.7c0-0.8,0.8-1.6,1.7-1.6c3.3,0.1,5.6,0,7.3-0.4c23.8-5.7,40.6-20.8,40.6-38.3
		c0-22.6-28.2-40.9-63-40.8c-18.2,0-34.6,5.1-46.1,13.1c2.2,3,4,5.2,6.1,6.8c2.1,1.6,4.5,2.4,8.2,2.6c0.9,0,1.6,0.9,1.5,1.7
		c0,0.8-0.8,1.6-1.7,1.6c-4.2-0.2-7.5-1.2-9.9-3.3c-3-2.5-4.5-3.5-7.2-8.2C293.5,512.2,266.3,498.4,234.3,498.4z M263.1,645.3
		l11.2,0.1c2.5,0,4.6,2.1,4.5,4.6l-0.7,68.9c0,2.5-2.1,4.6-4.7,4.6l-11.1-0.1c-2.5,0-4.6-2.1-4.5-4.6l0.7-68.9
		C258.5,647.4,260.6,645.3,263.1,645.3z M321.8,645.9c14.1,0.1,25.4,17.4,25.2,38.6s-11.8,38.3-25.9,38.1
		c-14.1-0.1-25.4-17.4-25.2-38.6S307.7,645.8,321.8,645.9z"/>
	<path id="use3078" inkscape:connector-curvature="0" class="st0" d="M99,716c-4.3,0.1-9.6,1.7-11.3,5.9l-10.4,25.3
		c-2.6,6.3,4.2,13.6,7.8,15.1l109.4,44.8c1.2-1.2,2.9-2,4.7-2c3.8-0.1,6.9,3,7,6.8c0.5,0.2,1,0.4,1.3,0.6c3.6,1.5,7.6-0.3,9.1-3.8
		l4.4-10.8l51,20.9l15.3-6.7l-61.7-25.3l4.4-10.8c1.5-3.6-0.2-7.7-3.8-9.1l-1.3-0.5c-1.2,1.4-3,2.4-5.1,2.4c-3.8,0.1-7-3.3-7-7.4
		c-37.7-15.6-75-30.7-109.1-44.6C102.7,716.2,100.9,716,99,716z M98.7,728.8c2.1,0,4.3,0.2,6,0.9c35.4,14.3,68.9,28.1,104.3,42.6
		c1,0.5,1.5,1.9,1.1,2.8c-0.4,0.9-1.7,1.6-2.8,1.2l-103.9-42.4h0c-4.4-1.8-7.9-0.8-9.9,1.8c-0.8,1-2.4,1.2-3.2,0.5s-0.9-2.4-0.1-3.3
		C92.7,730,96,728.9,98.7,728.8L98.7,728.8z M95.3,749.4c0.3,0,0.6,0,0.9,0.2c35.4,14.4,68.9,28.2,104.3,42.7
		c1.1,0.4,1.6,1.9,1.2,2.8c-0.4,1-1.8,1.6-2.8,1.2L94.8,753.7c-1.2-0.5-1.7-1.9-1.3-2.9C93.7,750.1,94.5,749.5,95.3,749.4z
		 M347.6,836.7l-16.3,6.3l100.4,41.1c0.8,3.3,9.7,9.3,16.1,12.2c4,1.8,8.2,3.3,12.3,5c2.8-6.9,5.6-13.9,8.5-20.8
		c-4.1-1.7-8.1-3.6-12.3-5c-5.3-1.8-15.7-4.3-20.1-2.6L347.6,836.7z"/>
	
		<path id="path3858" inkscape:connector-curvature="0" sodipodi:nodetypes="sssccssccasssssscssccssccssccsssscsscscscsscssssacssssss" class="st0" d="
		M374.8,754.9l-9.2,4c-1.9,0.8-2.8,3-1.9,4.9l2.5,5.7l-10,14.4c-44.3,20.7-92.7,43.5-139,65.4c-3.5,1.6-5.1,5.6-3.6,9.2l2.9,6.7
		c-4,1.9-7.9,3.8-11.9,5.6c-1.3-5.5-4.9-9.9-9.6-12.3c-5.5-2.9-11.9-3.1-18.6-1c-1.7,0.5-3.5,1.2-5.2,2.1s-3.5,2-5,3.3
		c-3.1,2.7-5.5,6.7-4.9,11.4c0.5,4,2.3,8,5.9,10.5c3.6,2.5,8.6,3.1,14.6,1.5c5.1-1.3,10-3,14.8-4.9c-0.3,0.4-0.4,0.9-0.7,1.3
		c-2.2,2.9-5.5,5.5-9.1,7.2c-14.6,7.1-29.9,14.7-45.3,20.7l2.4,6c15.7-6.1,31.2-13.8,45.7-20.9c4.4-2.1,8.5-5.2,11.5-9.2
		c1.9-2.6,3.3-5.6,3.8-8.9c4.8-2.1,9.5-4.4,14.1-6.6l2,4.5c1.6,3.5,5.6,5.1,9.1,3.6c46.9-19.6,96.9-40.6,142.4-57.6l17.3,2.4
		l2.5,5.7c0.8,1.9,3,2.8,4.9,1.9l9.2-4c1.9-0.8,2.8-3,2-4.9l-9.1-20.9L516,751c2.3-1,3.3-3.6,2.3-5.9l-1.9-4.4l29.1-12.7
		c2-0.9,6.8-4.9,6-6.8c-0.9-2-7.1-1.1-9.1-0.2l-29.1,12.7l-1.9-4.4c-1-2.3-3.7-3.3-5.9-2.3l-116.6,50.9l-9.2-20.9
		C378.9,755,376.7,754.1,374.8,754.9L374.8,754.9z M176.3,864.4c0.7-0.3,1.4-0.6,2.1-0.8c5.4-1.7,9.7-1.6,13.8,0.6
		c3.3,1.8,5.8,4.8,6.5,9.1c-6.1,2.6-12.2,5-18.5,6.7c-4.8,1.3-7.6,0.6-9.3-0.6s-2.8-3.3-3.1-6c-0.3-2.2,0.6-3.9,2.7-5.7
		c1-0.9,2.3-1.7,3.7-2.4C174.9,865,175.6,864.7,176.3,864.4L176.3,864.4z"/>
</g>
</svg>
